<svg width="625" height="576" viewBox="0 0 625 576" fill="none" xmlns="http://www.w3.org/2000/svg">
<path d="M663.713 567.924C663.713 571.135 565.794 573.73 445.143 573.73C324.492 573.73 226.572 571.135 226.572 567.924C226.572 564.712 324.492 562.136 445.143 562.136C565.794 562.136 663.713 564.73 663.713 567.924Z" fill="#2E353A"/>
<path d="M490.781 29.8101H285.412C279.019 29.8101 273.836 35.1879 273.836 41.8218V125.123C273.836 131.757 279.019 137.135 285.412 137.135H490.781C497.174 137.135 502.356 131.757 502.356 125.123V41.8218C502.356 35.1879 497.174 29.8101 490.781 29.8101Z" fill="#92E3A9"/>
<path d="M273.836 118.265V157.003L294.662 132.127" fill="#92E3A9"/>
<path d="M490.798 29.8101H285.359C283.84 29.8101 282.335 30.1209 280.932 30.7247C279.529 31.3286 278.254 32.2137 277.18 33.3293C276.107 34.4449 275.256 35.7692 274.676 37.2265C274.096 38.6837 273.799 40.2452 273.801 41.8218V157.004L290.447 137.135H490.798C492.317 137.135 493.822 136.824 495.225 136.221C496.628 135.617 497.903 134.732 498.977 133.616C500.05 132.5 500.901 131.176 501.481 129.719C502.061 128.262 502.358 126.7 502.356 125.123V41.8218C502.358 40.2452 502.061 38.6837 501.481 37.2265C500.901 35.7692 500.05 34.4449 498.977 33.3293C497.903 32.2137 496.628 31.3286 495.225 30.7247C493.822 30.1209 492.317 29.8101 490.798 29.8101Z" fill="#92E3A9"/>
<path opacity="0.1" d="M490.798 29.8101H285.359C283.84 29.8101 282.335 30.1209 280.932 30.7247C279.529 31.3286 278.254 32.2137 277.18 33.3293C276.107 34.4449 275.256 35.7692 274.676 37.2265C274.096 38.6837 273.799 40.2452 273.801 41.8218V157.004L290.447 137.135H490.798C492.317 137.135 493.822 136.824 495.225 136.221C496.628 135.617 497.903 134.732 498.977 133.616C500.05 132.5 500.901 131.176 501.481 129.719C502.061 128.262 502.358 126.7 502.356 125.123V41.8218C502.358 40.2452 502.061 38.6837 501.481 37.2265C500.901 35.7692 500.05 34.4449 498.977 33.3293C497.903 32.2137 496.628 31.3286 495.225 30.7247C493.822 30.1209 492.317 29.8101 490.798 29.8101Z" fill="#92E3A9"/>
<path d="M449.724 88.6891H302.163C301.068 88.6891 300.019 88.238 299.245 87.4349C298.471 86.6319 298.036 85.5427 298.036 84.407C298.041 83.2745 298.478 82.19 299.251 81.3908C300.024 80.5917 301.071 80.1431 302.163 80.1431H449.724C450.816 80.1431 451.862 80.5917 452.636 81.3908C453.409 82.19 453.846 83.2745 453.851 84.407C453.851 84.9694 453.744 85.5262 453.537 86.0457C453.329 86.5653 453.025 87.0373 452.642 87.4349C452.259 87.8326 451.804 88.148 451.303 88.3632C450.803 88.5784 450.266 88.6891 449.724 88.6891Z" fill="white"/>
<path d="M449.724 108.358H302.163C301.621 108.358 301.084 108.247 300.584 108.032C300.083 107.817 299.628 107.502 299.245 107.104C298.862 106.706 298.558 106.234 298.35 105.715C298.143 105.195 298.036 104.638 298.036 104.076C298.041 102.943 298.478 101.859 299.251 101.06C300.024 100.261 301.071 99.812 302.163 99.812H449.724C450.816 99.812 451.862 100.261 452.636 101.06C453.409 101.859 453.846 102.943 453.851 104.076C453.851 104.638 453.744 105.195 453.537 105.715C453.329 106.234 453.025 106.706 452.642 107.104C452.259 107.502 451.804 107.817 451.303 108.032C450.803 108.247 450.266 108.358 449.724 108.358Z" fill="white"/>
<path d="M310.398 69.0203C318.588 69.0203 325.226 62.1315 325.226 53.6337C325.226 45.1359 318.588 38.2471 310.398 38.2471C302.209 38.2471 295.571 45.1359 295.571 53.6337C295.571 62.1315 302.209 69.0203 310.398 69.0203Z" fill="white"/>
<path d="M490.781 175.057H285.412C279.019 175.057 273.836 180.435 273.836 187.069V270.371C273.836 277.004 279.019 282.382 285.412 282.382H490.781C497.174 282.382 502.356 277.004 502.356 270.371V187.069C502.356 180.435 497.174 175.057 490.781 175.057Z" fill="#92E3A9"/>
<path d="M273.836 263.494V302.251L294.662 277.357" fill="#92E3A9"/>
<path d="M490.798 175.057H285.359C282.294 175.057 279.354 176.321 277.187 178.57C275.019 180.819 273.801 183.87 273.801 187.051V302.251L290.448 282.292H490.798C493.863 282.292 496.803 281.028 498.971 278.779C501.138 276.529 502.356 273.479 502.356 270.298V187.051C502.356 183.87 501.138 180.819 498.971 178.57C496.803 176.321 493.863 175.057 490.798 175.057Z" fill="#92E3A9"/>
<path opacity="0.1" d="M490.798 175.057H285.359C282.294 175.057 279.354 176.321 277.187 178.57C275.019 180.819 273.801 183.87 273.801 187.051V302.251L290.448 282.292H490.798C493.863 282.292 496.803 281.028 498.971 278.779C501.138 276.529 502.356 273.479 502.356 270.298V187.051C502.356 183.87 501.138 180.819 498.971 178.57C496.803 176.321 493.863 175.057 490.798 175.057Z" fill="#92E3A9"/>
<path d="M449.724 233.918H302.163C301.071 233.918 300.024 233.47 299.251 232.67C298.478 231.871 298.041 230.787 298.036 229.654C298.036 228.519 298.471 227.429 299.245 226.626C300.019 225.823 301.068 225.372 302.163 225.372H449.724C450.266 225.372 450.803 225.483 451.303 225.698C451.804 225.913 452.259 226.229 452.642 226.626C453.025 227.024 453.329 227.496 453.537 228.015C453.744 228.535 453.851 229.092 453.851 229.654C453.846 230.787 453.409 231.871 452.636 232.67C451.862 233.47 450.816 233.918 449.724 233.918Z" fill="white"/>
<path d="M449.724 253.587H302.163C301.071 253.587 300.024 253.138 299.251 252.339C298.478 251.54 298.041 250.456 298.036 249.323C298.036 248.187 298.471 247.098 299.245 246.295C300.019 245.492 301.068 245.041 302.163 245.041H449.724C450.266 245.041 450.803 245.152 451.303 245.367C451.804 245.582 452.259 245.898 452.642 246.295C453.025 246.693 453.329 247.165 453.537 247.684C453.744 248.204 453.851 248.761 453.851 249.323C453.846 250.456 453.409 251.54 452.636 252.339C451.862 253.138 450.816 253.587 449.724 253.587Z" fill="white"/>
<path d="M310.398 214.25C318.588 214.25 325.226 207.361 325.226 198.863C325.226 190.365 318.588 183.477 310.398 183.477C302.209 183.477 295.571 190.365 295.571 198.863C295.571 207.361 302.209 214.25 310.398 214.25Z" fill="white"/>
<path d="M115.135 387.712C114.978 387.712 114.279 376.335 114.314 375.61C114.716 367.209 120.276 351.205 129.071 348.774C130.54 348.41 132.065 348.371 133.549 348.66C135.033 348.949 136.441 349.56 137.682 350.452C138.922 351.344 139.968 352.497 140.75 353.837C141.532 355.177 142.033 356.673 142.221 358.227C143.235 364.795 139.108 371.799 134.929 376.372C129.998 381.67 115.135 387.712 115.135 387.712Z" fill="#2E353A"/>
<path d="M103.665 343.875C103.508 343.875 104.469 332.516 104.609 331.79C106.253 323.553 114.086 308.602 123.109 307.586C124.614 307.458 126.128 307.66 127.552 308.179C128.977 308.699 130.28 309.524 131.377 310.6C132.474 311.677 133.34 312.981 133.919 314.428C134.498 315.875 134.776 317.432 134.737 318.999C134.737 325.658 129.684 331.936 124.893 335.764C119.245 340.264 103.665 343.875 103.665 343.875Z" fill="#2E353A"/>
<path d="M100.762 292.144C100.605 292.144 101.584 280.786 101.724 280.06C103.35 271.822 111.184 256.871 120.224 255.855C121.728 255.727 123.241 255.929 124.665 256.449C126.088 256.969 127.39 257.794 128.486 258.871C129.581 259.948 130.446 261.252 131.023 262.699C131.6 264.146 131.876 265.703 131.834 267.268C131.834 273.927 126.799 280.187 121.99 284.034C116.342 288.534 100.78 292.144 100.762 292.144Z" fill="#2E353A"/>
<path d="M95.7439 243.463C95.5865 243.463 96.5657 232.086 96.7056 231.378C98.3318 223.123 106.165 208.19 115.205 207.155C116.71 207.03 118.224 207.235 119.647 207.757C121.071 208.278 122.373 209.105 123.468 210.183C124.563 211.262 125.427 212.567 126.004 214.015C126.581 215.463 126.858 217.02 126.816 218.587C126.816 225.227 121.78 231.505 116.971 235.334C111.324 239.834 95.7614 243.463 95.7439 243.463Z" fill="#2E353A"/>
<path d="M80.776 204.397C80.6361 204.397 78.6777 193.202 78.6252 192.476C78.1007 184.075 81.8601 167.509 90.3056 164.062C91.7237 163.525 93.2351 163.304 94.741 163.414C96.2469 163.524 97.7135 163.962 99.0451 164.7C100.377 165.438 101.543 166.459 102.469 167.697C103.395 168.934 104.058 170.36 104.417 171.882C106.165 178.287 102.843 185.726 99.1709 190.734C94.9044 196.631 80.776 204.397 80.776 204.397Z" fill="#2E353A"/>
<path d="M110.502 387.839C110.677 387.839 105.903 377.478 105.519 376.861C101.2 369.749 88.8024 358.608 80.0071 360.949C78.5571 361.378 77.2106 362.12 76.0553 363.126C74.9 364.132 73.9619 365.379 73.3021 366.786C72.6422 368.193 72.2754 369.729 72.2256 371.293C72.1758 372.857 72.444 374.414 73.0129 375.864C75.2161 382.123 82.1054 386.133 87.9107 387.966C94.765 390.125 110.502 387.839 110.502 387.839Z" fill="#2E353A"/>
<path d="M101.322 338.014C101.497 338.014 95.2546 328.506 94.7999 327.962C89.5542 321.593 75.5657 312.539 67.26 316.222C65.8856 316.873 64.659 317.817 63.6603 318.993C62.6616 320.169 61.9134 321.551 61.4645 323.048C61.0156 324.545 60.8761 326.123 61.0552 327.679C61.2344 329.236 61.728 330.736 62.504 332.081C65.5814 337.905 72.9953 340.79 78.9929 341.697C86.0221 342.75 101.322 338.014 101.322 338.014Z" fill="#2E353A"/>
<path d="M98.6816 289.205C98.839 289.205 92.6141 279.697 92.1595 279.153C86.9138 272.784 72.9252 263.73 64.6021 267.432C63.2129 268.078 61.9717 269.023 60.9606 270.204C59.9496 271.385 59.1917 272.775 58.7371 274.283C58.2826 275.79 58.1417 277.381 58.3238 278.949C58.5059 280.518 59.0069 282.028 59.7935 283.381C62.8885 289.205 70.2849 292.09 76.3 292.979C83.3817 293.959 98.6816 289.223 98.6816 289.205Z" fill="#2E353A"/>
<path d="M94.1531 244.424C94.328 244.424 88.0856 234.917 87.631 234.372C82.3853 228.004 68.3968 218.949 60.0911 222.633C58.7167 223.283 57.49 224.228 56.4914 225.404C55.4927 226.58 54.7444 227.961 54.2955 229.458C53.8466 230.955 53.7072 232.533 53.8863 234.09C54.0654 235.646 54.5591 237.146 55.335 238.491C58.4125 244.334 65.8264 247.2 71.824 248.108C78.8532 249.16 94.1531 244.424 94.1531 244.424Z" fill="#2E353A"/>
<path d="M80.8813 205.867C81.0386 205.867 73.887 197.121 73.3275 196.613C67.3823 190.898 52.6245 183.477 44.7035 188.104C43.403 188.907 42.281 189.987 41.411 191.272C40.541 192.558 39.9427 194.019 39.6554 195.561C39.3681 197.103 39.3983 198.691 39.7439 200.22C40.0895 201.749 40.7428 203.185 41.661 204.434C45.3504 209.877 53.0091 211.909 59.1466 212.109C66.1758 212.327 80.8813 205.885 80.8813 205.867Z" fill="#2E353A"/>
<path d="M61.8046 174.005C61.962 174.005 59.444 162.864 59.2167 162.175C56.4715 154.246 46.6795 140.619 37.587 140.928C36.0799 141.023 34.6091 141.446 33.2701 142.17C31.9311 142.894 30.7541 143.902 29.8155 145.129C28.877 146.356 28.198 147.775 27.8228 149.293C27.4475 150.81 27.3844 152.393 27.6376 153.937C28.5119 160.542 34.4046 165.985 39.6852 169.07C45.8926 172.699 61.7871 174.005 61.8046 174.005Z" fill="#2E353A"/>
<path d="M130.418 446.5C130.418 446.5 128.547 442.055 125.61 434.271C122.672 426.487 118.615 415.256 114.314 401.611C112.163 394.788 109.977 387.349 107.844 379.42C106.76 375.428 105.781 371.418 104.714 367.118C104.26 365.013 103.822 362.89 103.368 360.749C102.913 358.608 102.598 356.34 102.214 354.108C100.834 344.955 99.9404 335.73 99.5384 326.474C99.1013 317.057 98.9264 307.531 98.6991 298.005C98.4718 288.479 98.2445 278.99 97.5101 269.7C96.8696 260.602 95.6133 251.561 93.7507 242.646C91.8745 234.343 89.288 226.231 86.022 218.405C83.1053 211.364 79.7949 204.506 76.1077 197.865C72.733 191.642 69.2708 186.18 66.1758 181.354C63.0809 176.527 60.1783 172.463 57.7478 169.143C52.8867 162.502 49.8442 158.945 49.8442 158.945C49.8442 158.945 52.9567 162.447 57.9751 168.961C60.458 172.245 63.4306 176.219 66.7179 181.009C70.0052 185.799 73.5023 191.17 77.0169 197.339C80.8924 203.939 84.3954 210.767 87.5083 217.788C90.9961 225.633 93.8105 233.781 95.9189 242.138C97.9943 251.093 99.4608 260.187 100.308 269.355C101.235 278.736 101.707 288.28 102.056 297.806C102.406 307.332 102.843 316.821 103.473 326.129C104.062 335.206 105.124 344.243 106.655 353.201C107.092 355.36 107.355 357.465 107.897 359.606C108.439 361.747 108.893 363.852 109.383 365.939C110.467 369.912 111.569 374.049 112.723 377.914C114.978 385.698 117.304 393.01 119.577 399.687C124.088 413.114 128.32 424.11 131.415 431.767C134.51 439.424 136.416 443.67 136.416 443.67C136.704 444.455 136.695 445.323 136.391 446.101C136.086 446.88 135.509 447.509 134.775 447.863C134.042 448.218 133.206 448.27 132.436 448.011C131.667 447.751 131.021 447.198 130.628 446.464L130.418 446.5Z" fill="#2E353A"/>
<path d="M171.597 376.172C171.439 376.172 173.905 365.013 174.132 364.324C176.825 356.394 186.547 342.695 195.622 342.949C197.129 343.033 198.602 343.446 199.945 344.16C201.289 344.874 202.471 345.875 203.417 347.095C204.362 348.316 205.049 349.73 205.432 351.245C205.816 352.76 205.887 354.341 205.641 355.886C204.82 362.491 198.962 367.989 193.699 371.11C187.439 374.775 171.702 376.172 171.597 376.172Z" fill="#2E353A"/>
<path d="M172.611 330.774C172.453 330.774 176.51 320.105 176.842 319.47C180.672 312.031 192.265 300.019 201.2 301.707C202.678 302.028 204.074 302.668 205.298 303.586C206.521 304.503 207.545 305.678 208.302 307.034C209.059 308.39 209.533 309.896 209.692 311.454C209.851 313.012 209.692 314.587 209.226 316.077C207.477 322.482 200.85 326.964 195.237 329.232C188.54 331.881 172.628 330.774 172.611 330.774Z" fill="#2E353A"/>
<path d="M183.942 280.314C183.767 280.314 187.824 269.645 188.156 269.01C191.985 261.589 203.596 249.577 212.531 251.247C214.009 251.569 215.406 252.211 216.629 253.131C217.852 254.051 218.875 255.228 219.631 256.586C220.386 257.943 220.858 259.451 221.014 261.01C221.171 262.569 221.009 264.145 220.539 265.635C218.791 272.022 212.164 276.522 206.551 278.79C199.941 281.439 183.942 280.314 183.942 280.314Z" fill="#2E353A"/>
<path d="M192.527 232.177C192.353 232.177 196.409 221.526 196.742 220.873C200.571 213.452 212.181 201.44 221.116 203.127C222.594 203.448 223.99 204.088 225.213 205.006C226.437 205.924 227.46 207.099 228.215 208.456C228.971 209.812 229.443 211.318 229.599 212.876C229.756 214.434 229.594 216.009 229.125 217.498C227.376 223.903 220.749 228.384 215.136 230.653C208.422 233.302 192.527 232.177 192.527 232.177Z" fill="#2E353A"/>
<path d="M188.907 190.281C188.733 190.281 189.939 178.94 190.096 178.233C191.845 170.013 200.028 155.244 209.086 154.427C210.592 154.334 212.101 154.57 213.513 155.122C214.926 155.673 216.211 156.527 217.284 157.627C218.358 158.727 219.196 160.05 219.745 161.509C220.294 162.968 220.54 164.53 220.469 166.094C220.469 172.753 215.223 178.904 210.292 182.624C204.557 186.997 188.907 190.281 188.907 190.281Z" fill="#2E353A"/>
<path d="M167.191 374.938C167.348 374.938 165.599 363.652 165.442 362.963C163.256 354.852 154.426 340.518 145.351 340.155C143.84 340.137 142.343 340.45 140.956 341.073C139.57 341.696 138.325 342.616 137.304 343.771C136.283 344.927 135.508 346.293 135.029 347.78C134.551 349.267 134.38 350.842 134.527 352.403C134.93 359.044 140.438 364.922 145.491 368.388C151.401 372.47 167.173 374.938 167.191 374.938Z" fill="#2E353A"/>
<path d="M171.981 324.46C172.156 324.46 168.764 313.573 168.484 312.884C165.127 305.208 154.303 292.435 145.281 293.505C143.786 293.727 142.352 294.272 141.074 295.107C139.796 295.941 138.701 297.046 137.861 298.348C137.022 299.651 136.456 301.122 136.201 302.667C135.946 304.212 136.007 305.795 136.381 307.313C137.744 313.809 144.057 318.762 149.547 321.393C155.964 324.496 171.964 324.46 171.981 324.46Z" fill="#2E353A"/>
<path d="M182.822 276.885C182.98 276.885 179.605 265.998 179.325 265.309C175.985 257.652 165.162 244.878 156.139 245.948C154.639 246.167 153.2 246.712 151.916 247.548C150.633 248.383 149.534 249.491 148.692 250.798C147.85 252.105 147.284 253.582 147.031 255.132C146.777 256.682 146.842 258.271 147.222 259.793C148.603 266.307 154.898 271.242 160.406 273.873C166.858 276.921 182.805 276.885 182.822 276.885Z" fill="#2E353A"/>
<path d="M190.744 232.576C190.919 232.576 187.526 221.689 187.247 221C183.889 213.343 173.083 200.551 164.043 201.639C162.549 201.859 161.116 202.402 159.837 203.235C158.559 204.067 157.464 205.17 156.624 206.471C155.785 207.772 155.219 209.243 154.963 210.786C154.708 212.33 154.769 213.912 155.143 215.429C156.507 221.943 162.819 226.879 168.327 229.51C174.779 232.576 190.744 232.576 190.744 232.576Z" fill="#2E353A"/>
<path d="M188.575 191.732C188.75 191.732 184.239 181.263 183.872 180.628C179.728 173.37 167.628 161.921 158.762 164.026C157.299 164.414 155.932 165.119 154.749 166.093C153.567 167.068 152.595 168.29 151.899 169.681C151.203 171.071 150.797 172.598 150.708 174.163C150.619 175.727 150.849 177.293 151.383 178.759C153.429 185.055 160.214 189.247 165.966 191.242C172.716 193.583 188.575 191.732 188.575 191.732Z" fill="#2E353A"/>
<path d="M179.028 155.552C179.168 155.552 179.815 144.176 179.762 143.45C179.308 135.031 173.66 119.063 164.865 116.687C163.394 116.334 161.868 116.307 160.386 116.607C158.904 116.907 157.5 117.527 156.265 118.427C155.029 119.328 153.991 120.488 153.216 121.832C152.441 123.177 151.948 124.675 151.768 126.231C150.789 132.817 154.95 139.785 159.164 144.375C164.113 149.601 179.011 155.534 179.028 155.552Z" fill="#2E353A"/>
<path d="M170.163 437.047C170.163 437.047 169.569 432.239 168.887 423.892C168.205 415.546 167.383 403.607 167.016 389.254C166.823 381.997 166.754 374.303 166.893 366.066C166.893 361.929 167.103 357.792 167.261 353.364C167.4 351.223 167.558 349.046 167.698 346.869C167.838 344.691 168.187 342.405 168.415 340.155C169.613 330.996 171.289 321.91 173.433 312.938C175.584 303.775 178.032 294.576 180.427 285.395C182.823 276.214 185.183 267.033 187.037 257.888C188.914 248.98 190.182 239.946 190.831 230.852C191.281 222.333 191 213.79 189.992 205.323C189.128 197.708 187.832 190.153 186.11 182.697C184.571 175.729 182.77 169.469 181.127 163.935C179.483 158.401 177.787 153.629 176.388 149.746C173.538 141.944 171.597 137.625 171.597 137.625C171.597 137.625 173.625 141.908 176.633 149.637C178.137 153.502 179.868 158.238 181.686 163.736C183.505 169.233 185.393 175.493 187.072 182.443C188.96 189.908 190.425 197.481 191.461 205.123C192.664 213.676 193.132 222.323 192.86 230.961C192.392 240.186 191.3 249.366 189.59 258.432C187.841 267.686 185.743 276.976 183.522 286.23C181.302 295.483 179.063 304.701 177.123 313.809C175.195 322.683 173.736 331.66 172.751 340.7C172.576 342.895 172.261 344.982 172.192 347.195C172.122 349.409 171.982 351.568 171.877 353.709C171.877 357.846 171.754 362.128 171.877 366.174C171.877 374.321 172.139 382.015 172.489 389.109C173.136 403.316 174.237 415.129 175.059 423.348C175.881 431.568 176.58 436.249 176.58 436.249C176.641 436.679 176.62 437.117 176.518 437.539C176.415 437.96 176.234 438.357 175.984 438.705C175.734 439.054 175.42 439.348 175.06 439.571C174.701 439.794 174.302 439.942 173.888 440.005C173.473 440.068 173.051 440.046 172.645 439.939C172.238 439.833 171.856 439.645 171.52 439.385C171.184 439.126 170.901 438.8 170.686 438.427C170.471 438.054 170.329 437.641 170.268 437.21V437.12L170.163 437.047Z" fill="#2E353A"/>
<path d="M190.446 557.019H116.412L95.5867 431.205H211.272L190.446 557.019Z" fill="#2E353A"/>
<path d="M320.855 568.922C409.767 568.922 481.845 494.128 481.845 401.865C481.845 309.602 409.767 234.808 320.855 234.808C231.942 234.808 159.864 309.602 159.864 401.865C159.864 494.128 231.942 568.922 320.855 568.922Z" fill="#92E3A9"/>
<path d="M320.854 569.756C288.854 569.756 257.573 559.909 230.966 541.461C204.359 523.013 183.621 496.792 171.376 466.114C159.13 435.436 155.926 401.678 162.168 369.11C168.411 336.543 183.821 306.627 206.448 283.147C229.076 259.667 257.905 243.677 289.29 237.199C320.675 230.721 353.206 234.045 382.77 246.753C412.334 259.46 437.603 280.979 455.382 308.589C473.16 336.198 482.649 368.659 482.649 401.864C482.598 446.376 465.535 489.049 435.204 520.523C404.873 551.998 363.749 569.703 320.854 569.756ZM320.854 235.624C289.169 235.624 258.195 245.374 231.85 263.64C205.505 281.907 184.971 307.87 172.846 338.247C160.72 368.623 157.548 402.049 163.729 434.296C169.911 466.544 185.168 496.165 207.573 519.414C229.978 542.663 258.524 558.496 289.6 564.911C320.677 571.325 352.888 568.033 382.161 555.451C411.435 542.868 436.455 521.561 454.059 494.223C471.662 466.885 481.058 434.744 481.058 401.864C481.016 357.788 464.124 315.529 434.089 284.362C404.054 253.196 363.33 235.667 320.854 235.624Z" fill="#2E353A"/>
<path d="M278.207 511.73C264.587 506.516 252.105 498.54 241.487 488.269C230.775 477.584 222.475 464.572 217.182 450.165C211.179 434.012 208.206 416.817 208.421 399.506C208.306 384.724 210.82 370.048 215.835 356.213C220.37 343.522 227.161 331.827 235.856 321.738C253.039 302.187 275.26 288.152 299.889 281.294C311.973 277.93 324.429 276.222 336.941 276.213C347.322 276.174 357.669 277.454 367.75 280.024C377.493 282.526 386.817 286.532 395.413 291.908C403.907 297.214 411.519 303.912 417.952 311.74C424.683 320.152 429.816 329.812 433.077 340.209C436.853 352.045 438.714 364.449 438.585 376.916C438.454 400.901 430.176 424.069 415.207 442.345C408.736 450.013 401.048 456.475 392.475 461.451C385.098 465.891 376.75 468.302 368.223 468.455C362.37 468.528 356.654 466.617 351.943 463.012C349.565 461.199 347.629 458.833 346.29 456.105C344.951 453.376 344.246 450.36 344.232 447.298C334.254 461.887 320.755 469.181 303.736 469.181C289.875 469.181 278.801 464.264 270.513 454.429C262.225 444.595 258.098 432.498 258.133 418.14C258.171 407.217 260.004 396.38 263.554 386.097C267.027 375.7 272.003 365.911 278.311 357.065C284.573 348.343 292.57 341.121 301.76 335.891C310.924 330.519 321.275 327.706 331.8 327.726C339.113 327.649 346.327 329.477 352.783 333.042C359.073 336.504 364.174 341.905 367.383 348.501L368.747 343.893C369.371 341.957 370.426 340.201 371.828 338.769C373.23 337.336 374.937 336.268 376.812 335.651C378.687 335.033 380.676 334.885 382.617 335.216C384.558 335.548 386.396 336.351 387.981 337.56C388.993 338.417 389.796 339.509 390.324 340.748C390.853 341.987 391.093 343.338 391.024 344.691C391.025 345.987 390.818 347.275 390.412 348.501L368.712 423.348C366.264 431.912 365.04 437.785 365.04 440.966C365.04 446.361 367.692 449.052 372.996 449.04C379.92 449.04 386.722 445.738 393.402 439.133C400.599 431.682 406.153 422.7 409.681 412.806C413.835 401.982 415.96 390.435 415.941 378.785C416.043 368.52 414.597 358.302 411.657 348.501C409.219 340.05 405.327 332.126 400.169 325.113C395.272 318.723 389.358 313.249 382.683 308.928C376.019 304.573 368.746 301.311 361.123 299.257C353.313 297.144 345.274 296.077 337.203 296.082C326.941 296.095 316.73 297.591 306.865 300.527C296.738 303.534 287.084 308.051 278.207 313.936C269.254 319.802 261.147 326.956 254.129 335.183C246.89 343.846 241.248 353.816 237.482 364.595C233.295 376.348 231.198 388.791 231.293 401.32C231.065 416.162 233.662 430.905 238.934 444.704C243.433 456.67 250.579 467.373 259.794 475.949C268.678 483.971 278.941 490.182 290.044 494.257C301.749 498.556 314.086 500.705 326.502 500.607C339.774 500.632 352.972 498.545 365.635 494.42C366.913 493.972 368.255 493.757 369.604 493.785C370.886 493.731 372.164 493.965 373.35 494.473C374.537 494.98 375.603 495.748 376.476 496.724C378.153 498.532 379.087 500.946 379.081 503.456C379.247 505.475 378.703 507.488 377.549 509.122C376.395 510.757 374.709 511.902 372.804 512.347C357 517.364 340.58 519.98 324.054 520.113C308.407 520.234 292.871 517.393 278.207 511.73ZM333.461 439.732C340.054 434.796 344.955 427.803 347.45 419.773L361.438 368.714L360.511 366.646C359.622 364.963 358.548 363.392 357.312 361.965C355.639 359.971 353.821 358.115 351.874 356.412C349.371 354.321 346.529 352.711 343.48 351.658C335.564 348.751 326.88 349.062 319.175 352.529C314.987 354.403 311.137 357.004 307.792 360.223C304.301 363.597 301.198 367.378 298.542 371.49C295.77 375.748 293.426 380.29 291.548 385.044C289.666 389.782 288.209 394.69 287.194 399.705C286.193 404.474 285.677 409.34 285.655 414.221C285.637 417.351 285.818 420.478 286.197 423.583C286.522 426.334 287.108 429.045 287.946 431.676C288.686 434.059 289.739 436.324 291.076 438.408C292.31 440.336 293.86 442.025 295.657 443.397C297.569 444.847 299.72 445.923 302.004 446.573C304.691 447.348 307.47 447.721 310.258 447.679C318.627 447.773 326.79 444.977 333.461 439.732Z" fill="#2E353A"/>
<path d="M539.792 261.371C539.792 261.371 534.546 271.496 533.777 272.911C533.007 274.326 530.192 281.983 531.032 283.798C531.871 285.612 532.675 286.646 534.336 286.937C535.998 287.227 537.361 290.366 540.107 290.929C541.835 291.284 543.591 291.478 545.352 291.509C545.784 291.839 546.283 292.061 546.81 292.158C547.338 292.256 547.88 292.226 548.395 292.072C550.038 291.509 551.42 290.656 552.521 285.794C553.194 283.385 553.379 280.859 553.063 278.373L552.574 268.556L539.792 261.371Z" fill="white"/>
<path d="M547.416 293.124C546.585 293.113 545.773 292.861 545.072 292.398C543.346 292.35 541.626 292.15 539.932 291.8C538.36 291.355 536.954 290.433 535.892 289.15C535.421 288.565 534.821 288.105 534.144 287.808C533.245 287.6 532.412 287.157 531.724 286.522C531.035 285.887 530.514 285.081 530.21 284.179C529.073 281.838 532.378 273.51 532.99 272.457C533.794 271.06 538.935 261.045 538.987 260.936C539.102 260.726 539.29 260.571 539.512 260.5C539.725 260.411 539.963 260.411 540.176 260.5L552.941 267.667C553.072 267.745 553.182 267.856 553.261 267.989C553.34 268.122 553.387 268.273 553.396 268.429L553.885 278.227C554.205 280.8 554.009 283.413 553.308 285.903C552.224 290.747 550.808 292.09 548.605 292.852C548.224 293.007 547.823 293.099 547.416 293.124ZM540.159 262.605C538.9 265.036 535.228 272.167 534.529 273.383C533.567 275.034 531.259 282.237 531.801 283.362C532.675 285.177 533.34 285.83 534.476 286.03C535.511 286.347 536.431 286.979 537.117 287.844C537.942 288.877 539.043 289.634 540.281 290.021C541.948 290.356 543.638 290.544 545.335 290.584C545.537 290.584 545.734 290.654 545.894 290.783C546.208 291.02 546.569 291.18 546.95 291.252C547.331 291.324 547.724 291.307 548.097 291.201C549.304 290.783 550.563 290.348 551.595 285.576C552.229 283.291 552.414 280.897 552.137 278.536L551.665 269.101L540.159 262.605Z" fill="#2E353A"/>
<path d="M570.112 533.993C570.112 533.993 562.646 546.604 562.646 549.652C562.646 552.7 572.927 558.307 577.334 560.339C581.74 562.371 589.574 563.968 595.938 564.912C602.303 565.855 615.522 568.54 611.676 563.387C607.829 558.234 584.188 544.662 583.209 543.047C581.996 541.539 580.637 540.165 579.152 538.947L570.112 533.993Z" fill="white"/>
<path d="M608.493 567.343C604.761 567.186 601.045 566.755 597.372 566.055L595.798 565.801C586.916 564.385 580.586 562.825 576.984 561.156C576.354 560.865 561.771 554.097 561.771 549.652C561.771 546.44 568.591 534.828 569.36 533.503C569.479 533.31 569.663 533.17 569.876 533.11C570.09 533.049 570.317 533.073 570.514 533.177L579.554 538.148C581.177 539.437 582.65 540.916 583.943 542.557C584.363 543.066 588.21 545.569 591.934 548.001C599.872 553.136 609.734 559.541 612.287 562.843C613.214 564.041 613.441 565.075 612.952 565.928C612.462 566.781 610.923 567.343 608.493 567.343ZM570.374 535.191C567.542 540.054 563.467 547.729 563.467 549.706C563.467 551.684 570.951 556.474 577.631 559.559C581.128 561.156 587.283 562.662 596.026 564.059L597.582 564.313C600.799 564.839 610.591 566.454 611.396 565.039C611.396 565.039 611.396 564.676 610.871 564.004C608.51 560.938 598.369 554.351 590.955 549.489C584.992 545.624 582.859 544.209 582.422 543.537C581.262 542.101 579.961 540.793 578.54 539.636L570.374 535.191Z" fill="#2E353A"/>
<path d="M581.81 553.862L584.433 557.926C587.253 562.367 591.085 566.019 595.589 568.559C602.583 572.478 613.354 576.96 622.761 574.274C638.183 569.865 599.365 545.57 599.365 545.57C599.365 545.57 585.534 555.549 581.81 553.862Z" fill="white"/>
<path d="M616.641 575.998C608.878 575.998 600.904 572.623 595.169 569.357C590.547 566.754 586.609 563.016 583.698 558.47L581.076 554.388C580.966 554.232 580.907 554.045 580.907 553.852C580.907 553.66 580.966 553.473 581.076 553.317C581.199 553.166 581.365 553.059 581.551 553.014C581.737 552.968 581.932 552.985 582.107 553.063C584.363 554.079 593.228 548.872 598.806 544.862C598.945 544.763 599.11 544.711 599.278 544.711C599.447 544.711 599.611 544.763 599.75 544.862C602.67 546.676 628.269 563.006 627.168 571.28C626.923 573.095 625.419 574.474 622.936 575.199C620.882 575.757 618.765 576.026 616.641 575.998ZM583.524 554.878L585.15 557.436C587.899 561.742 591.621 565.286 595.991 567.76C603.125 571.752 613.476 575.98 622.534 573.403C625.262 572.605 625.437 571.371 625.489 570.972C626.276 565.039 607.357 551.702 599.383 546.658C596.603 548.581 588.245 554.297 583.524 554.878Z" fill="#2E353A"/>
<path d="M586.251 555.785C590.5 562.454 596.937 567.296 604.367 569.412C617.044 573.167 620.681 572.224 623.391 568.468" fill="white"/>
<path d="M616.466 572.714C612.272 572.468 608.128 571.65 604.139 570.282C596.475 568.135 589.84 563.136 585.499 556.239C585.44 556.137 585.401 556.023 585.385 555.905C585.369 555.788 585.376 555.668 585.405 555.552C585.435 555.437 585.486 555.33 585.556 555.236C585.626 555.141 585.714 555.063 585.814 555.005C586.017 554.885 586.256 554.852 586.482 554.913C586.707 554.974 586.901 555.124 587.021 555.331C591.177 561.771 597.417 566.457 604.611 568.541C616.974 572.169 620.348 571.262 622.691 567.924C622.833 567.735 623.04 567.611 623.268 567.577C623.496 567.543 623.728 567.602 623.915 567.742C624.101 567.887 624.224 568.101 624.256 568.34C624.289 568.578 624.229 568.82 624.09 569.012C623.234 570.258 622.082 571.253 620.747 571.901C619.411 572.55 617.937 572.83 616.466 572.714Z" fill="#2E353A"/>
<path d="M563.607 547.33C563.607 547.33 577.596 557.726 584.433 557.926L563.607 547.33Z" fill="white"/>
<path d="M584.363 558.833C577.368 558.634 563.642 548.491 563.065 548.074C562.881 547.929 562.758 547.716 562.722 547.479C562.686 547.242 562.74 547 562.873 546.803C562.938 546.706 563.02 546.623 563.116 546.559C563.212 546.495 563.32 546.452 563.432 546.431C563.544 546.411 563.66 546.414 563.771 546.441C563.882 546.467 563.987 546.517 564.079 546.586C564.219 546.695 577.946 556.837 584.415 557.019C584.649 557.028 584.869 557.132 585.029 557.309C585.19 557.485 585.277 557.72 585.272 557.962C585.267 558.082 585.24 558.199 585.192 558.307C585.144 558.415 585.076 558.513 584.991 558.593C584.907 558.674 584.808 558.737 584.7 558.778C584.592 558.819 584.478 558.838 584.363 558.833Z" fill="#2E353A"/>
<path d="M533.235 264.855C533.235 264.855 545.65 286.211 548.308 291.165C550.965 296.118 584.468 335.873 597.757 370.094C611.046 404.314 623.828 435.196 623.286 445.139C622.744 455.083 579.117 538.947 579.117 538.947L570.077 533.993C570.077 533.993 583.891 455.065 582.317 446.791C580.743 438.517 531.906 356.285 531.906 356.285C531.906 356.285 509.035 339.738 499.47 320.414" fill="#2E353A"/>
<path d="M535.001 318.218C535.001 318.218 528.094 333.659 528.094 335.873C528.094 338.086 566.912 456.734 578.086 483.769C585.158 501.087 591.368 518.771 596.69 536.751C596.69 536.751 600.957 542.194 597.757 547.783C594.557 553.372 581.81 557.164 579.152 552.192C576.494 547.22 550.423 521.346 539.267 495.363C528.112 469.38 512.147 425.271 503.09 408.723C491.158 387.535 480.506 365.598 471.196 343.04C459.48 314.353 447.433 283.253 447.433 283.253C463.223 284.623 479.119 282.773 494.224 277.81C518.704 269.536 529.196 253.696 529.196 253.696C529.196 253.696 535.421 270.207 537.012 273.401" fill="#2E353A"/>
<path d="M538.656 364.813C538.535 364.812 538.417 364.773 538.318 364.702C538.218 364.631 538.141 364.531 538.096 364.414L525.856 331.391C525.814 331.268 525.808 331.136 525.839 331.01C525.87 330.883 525.937 330.77 526.031 330.683L539.74 318.49C539.856 318.378 540.009 318.316 540.168 318.316C540.327 318.316 540.48 318.378 540.597 318.49C540.703 318.608 540.763 318.764 540.763 318.926C540.763 319.088 540.703 319.243 540.597 319.361L527.202 331.282L539.285 363.942C539.343 364.097 539.341 364.268 539.279 364.421C539.217 364.573 539.1 364.695 538.953 364.759L538.656 364.813Z" fill="white"/>
<path d="M526.398 331.772C526.249 331.774 526.105 331.715 525.996 331.609C525.935 331.551 525.887 331.481 525.854 331.403C525.821 331.325 525.804 331.241 525.804 331.155C525.804 331.065 525.804 321.103 521.502 314.825C520.435 313.21 519.579 311.94 518.862 310.906C516.624 307.604 515.942 306.606 515.539 304.955C515.262 303.024 515.262 301.061 515.539 299.13C515.569 298.97 515.656 298.827 515.782 298.73C515.908 298.632 516.065 298.587 516.221 298.604C516.3 298.615 516.375 298.642 516.443 298.684C516.512 298.726 516.571 298.781 516.618 298.847C516.666 298.913 516.7 298.988 516.719 299.068C516.737 299.148 516.741 299.23 516.729 299.312C516.482 301.087 516.482 302.889 516.729 304.664C517.078 306.08 517.673 306.95 519.876 310.198C520.575 311.233 521.45 312.503 522.516 314.118C526.398 319.906 526.94 328.216 527.028 330.593L551.875 329.595C552.033 329.594 552.186 329.656 552.302 329.767C552.419 329.878 552.491 330.03 552.504 330.194C552.509 330.275 552.498 330.357 552.471 330.434C552.444 330.511 552.402 330.581 552.348 330.641C552.294 330.7 552.229 330.748 552.156 330.78C552.084 330.812 552.006 330.829 551.927 330.829L526.468 331.845L526.398 331.772Z" fill="white"/>
<path d="M609.665 449.24C598.596 449.24 584.538 441.801 583.908 441.474C583.769 441.397 583.665 441.266 583.619 441.109C583.573 440.953 583.589 440.784 583.663 440.639C583.699 440.566 583.747 440.501 583.807 440.448C583.867 440.395 583.936 440.354 584.011 440.329C584.086 440.304 584.165 440.294 584.243 440.301C584.321 440.307 584.398 440.33 584.468 440.367C584.625 440.458 600.607 448.913 611.553 447.915C611.633 447.908 611.713 447.917 611.789 447.943C611.865 447.968 611.935 448.009 611.995 448.063C612.056 448.117 612.105 448.184 612.14 448.258C612.175 448.332 612.196 448.413 612.2 448.496C612.207 448.577 612.199 448.659 612.175 448.737C612.152 448.814 612.114 448.886 612.064 448.949C612.013 449.011 611.952 449.063 611.882 449.1C611.812 449.138 611.736 449.161 611.658 449.167C611.011 449.222 610.347 449.24 609.665 449.24Z" fill="white"/>
<path d="M608.178 458.821H608.039C598.229 456.262 587.213 446.9 586.741 446.5C586.634 446.383 586.574 446.227 586.574 446.065C586.574 445.903 586.634 445.747 586.741 445.629C586.79 445.566 586.851 445.513 586.92 445.474C586.989 445.436 587.064 445.411 587.143 445.403C587.221 445.394 587.299 445.402 587.375 445.425C587.45 445.449 587.52 445.487 587.58 445.539C587.685 445.629 598.859 455.137 608.406 457.605C608.482 457.626 608.553 457.662 608.615 457.712C608.678 457.762 608.73 457.824 608.769 457.895C608.808 457.966 608.833 458.044 608.843 458.125C608.852 458.206 608.847 458.288 608.825 458.367C608.792 458.513 608.707 458.64 608.587 458.724C608.467 458.808 608.321 458.843 608.178 458.821Z" fill="white"/>
<path d="M525.908 322.119C525.813 322.119 525.72 322.096 525.635 322.052C525.55 322.008 525.476 321.944 525.419 321.865C525.373 321.798 525.34 321.721 525.323 321.641C525.306 321.56 525.305 321.476 525.32 321.395C525.334 321.314 525.365 321.237 525.409 321.168C525.453 321.099 525.51 321.04 525.576 320.994C527.937 319.289 531.679 316.005 531.679 314.39C531.679 313.319 530.402 312.049 529.038 310.761C527.529 309.453 526.281 307.85 525.366 306.043C524.475 303.884 521.275 295.41 521.869 293.342C521.893 293.264 521.931 293.192 521.982 293.13C522.033 293.068 522.095 293.017 522.165 292.98C522.235 292.943 522.311 292.92 522.389 292.914C522.468 292.908 522.547 292.917 522.621 292.943C522.774 292.997 522.899 293.111 522.971 293.26C523.043 293.41 523.056 293.582 523.006 293.741C522.639 294.848 524.545 300.999 526.415 305.499C527.271 307.139 528.422 308.593 529.808 309.781C531.434 311.396 532.833 312.775 532.833 314.372C532.833 317.166 526.888 321.502 526.206 321.992C526.119 322.061 526.016 322.104 525.908 322.119Z" fill="white"/>
<path d="M467.646 325.676C467.52 325.681 467.395 325.644 467.29 325.571C467.185 325.498 467.106 325.392 467.063 325.268C467.02 325.145 467.016 325.011 467.052 324.885C467.088 324.759 467.161 324.648 467.261 324.569L472.157 320.504C476.861 316.621 479.764 306.696 479.799 306.587C479.847 306.43 479.953 306.299 480.093 306.221C480.233 306.143 480.397 306.125 480.551 306.17C480.702 306.22 480.829 306.33 480.904 306.476C480.979 306.621 480.997 306.792 480.953 306.95C480.83 307.368 477.893 317.347 472.909 321.466L468.013 325.53C467.911 325.622 467.781 325.673 467.646 325.676Z" fill="white"/>
<path d="M583.891 554.66C583.803 554.657 583.717 554.634 583.639 554.593C583.56 554.553 583.491 554.495 583.436 554.424C577.176 546.461 571.523 538.004 566.527 529.131C559.76 516.574 540.299 482.227 540.089 481.955C538.287 477.821 536.949 473.487 536.102 469.036C535.98 468.346 535.893 467.711 535.805 467.221C535.158 462.649 534.878 460.762 529.021 456.843C523.163 452.923 522.796 446.101 522.306 438.789C522.201 437.065 522.079 435.287 521.887 433.527C521.1 426.269 502.53 393.609 488.979 369.876C485.901 364.432 483.103 359.57 480.83 355.523C468.695 333.859 460.302 305.372 460.215 305.081C460.171 304.923 460.188 304.752 460.263 304.607C460.338 304.461 460.465 304.351 460.617 304.301C460.691 304.276 460.77 304.267 460.848 304.275C460.926 304.283 461.002 304.307 461.07 304.346C461.139 304.385 461.199 304.438 461.248 304.502C461.296 304.566 461.331 304.64 461.351 304.718C461.439 305.009 469.797 333.369 481.862 354.888C484.135 358.934 486.933 363.852 490.01 369.241C503.632 393.101 522.271 425.797 523.076 433.382C523.268 435.196 523.39 437.01 523.513 438.716C523.985 445.974 524.387 452.288 529.668 455.808C535.98 460.018 536.295 462.213 536.994 467.022C536.994 467.62 537.169 468.237 537.274 468.927C538.104 473.246 539.407 477.452 541.156 481.465C541.313 481.773 560.792 516.121 567.576 528.641C572.54 537.442 578.153 545.831 584.363 553.735C584.412 553.798 584.45 553.87 584.472 553.948C584.494 554.026 584.502 554.108 584.494 554.189C584.486 554.27 584.462 554.348 584.425 554.42C584.387 554.491 584.336 554.554 584.275 554.605C584.156 554.666 584.021 554.686 583.891 554.66Z" fill="white"/>
<path d="M447.433 283.254C447.433 283.254 448.552 296.1 453.448 300.164C458.344 304.229 473.032 307.785 493.105 303.793C513.179 299.802 535.211 282.02 537.169 275.851C539.128 269.682 529.161 253.714 529.161 253.714C529.161 253.714 517.585 270.77 485.272 276.359C452.958 281.947 447.433 283.254 447.433 283.254Z" fill="white"/>
<path d="M476.092 306.424C464.254 306.424 456.141 303.575 452.888 300.872C447.765 296.608 446.611 283.889 446.559 283.344C446.54 283.128 446.597 282.912 446.719 282.736C446.841 282.559 447.02 282.434 447.223 282.383C447.45 282.383 453.151 280.913 485.132 275.379C516.606 269.935 528.321 253.279 528.444 253.115C528.526 252.998 528.634 252.902 528.758 252.836C528.883 252.77 529.021 252.735 529.161 252.734C529.304 252.738 529.444 252.777 529.569 252.85C529.694 252.923 529.8 253.026 529.878 253.152C530.927 254.821 540.019 269.736 537.991 276.068C535.84 282.745 513.301 300.545 493.263 304.61C487.608 305.785 481.858 306.393 476.092 306.424ZM448.395 283.979C448.727 286.774 450.143 296.245 453.99 299.457C458.361 303.086 472.367 307.005 492.93 302.832C513.144 298.731 534.599 280.931 536.347 275.488C537.729 271.169 532.081 260.264 529.073 255.22C525.961 259.085 513.476 272.331 485.359 277.175C459.446 281.675 450.738 283.381 448.395 283.979Z" fill="#2E353A"/>
<path d="M576.494 158.727C568.503 153.284 506.289 102.987 500.432 100.773C494.574 98.5598 482.946 100.773 482.946 100.773C482.946 100.773 446.891 105.346 439.337 108.503C438.62 108.793 422.376 118.482 421.851 118.991C415.994 123.962 390.377 136.192 383.488 151.651C375.672 169.142 444.355 274.453 447.555 283.271C450.755 292.09 467.524 294.267 482.946 292.053C498.368 289.84 511.902 286.61 523.076 273.346C525.101 270.704 526.799 267.809 528.129 264.728C529.726 261.285 530.133 257.377 529.283 253.66C525.296 236.422 515.12 186.724 508.405 153.864C519.596 161.358 542.869 176.581 556.403 181.952C574.483 189.21 588.315 184.166 588.315 178.087C588.315 172.009 584.468 164.243 576.494 158.727Z" fill="white"/>
<path d="M554.899 169.451C544.239 168.359 533.914 164.979 524.579 159.526C524.579 159.526 538.41 152.903 538.935 149.582C539.459 146.262 519.788 149.038 522.446 147.931C525.104 146.824 528.828 144.066 522.446 144.066C517.358 143.719 512.345 142.607 507.566 140.764L508.283 153.81C514.368 157.893 524.02 164.225 533.707 170.031C542.818 175.002 552.2 179.419 561.806 183.259C561.806 183.259 573.504 171.664 554.899 169.451Z" fill="#92E3A9"/>
<g style="mix-blend-mode:multiply">
<path d="M482.824 292.035L484.8 291.745C489.066 289.604 496.288 288.261 503.317 286.447C513.948 283.689 502.251 283.689 484.695 274.308C467.139 264.927 460.215 251.138 444.268 231.269C428.321 211.401 421.939 201.458 425.139 199.262C428.339 197.067 418.757 197.049 415.032 194.835C411.308 192.621 420.278 192.639 427.797 184.91C435.316 177.18 413.424 186.561 411.308 186.017C409.192 185.472 413.424 178.287 413.424 178.287L398.001 194.835L435.228 261.063L437.361 262.714L439.809 266.343L446.804 281.947C447.083 282.491 447.276 282.945 447.398 283.253C450.616 292.09 467.402 294.267 482.824 292.035Z" fill="#92E3A9"/>
</g>
<path d="M412.322 137.734C424.09 135.92 456.893 155.334 456.893 155.334C438.865 142.633 423.093 130.73 412.305 125.359L392.423 139.875L391.06 141.2C393.368 140.728 402.215 139.222 412.322 137.734Z" fill="#92E3A9"/>
<path opacity="0.5" d="M554.899 169.451C544.239 168.359 533.914 164.979 524.579 159.526C524.579 159.526 538.41 152.903 538.935 149.582C539.459 146.262 519.788 149.038 522.446 147.931C525.104 146.824 528.828 144.066 522.446 144.066C517.358 143.719 512.345 142.607 507.566 140.764L508.283 153.81C514.368 157.893 524.02 164.225 533.707 170.031C542.818 175.002 552.2 179.419 561.806 183.259C561.806 183.259 573.504 171.664 554.899 169.451Z" fill="white"/>
<path opacity="0.5" d="M482.824 292.035L484.8 291.745C489.066 289.604 496.288 288.261 503.317 286.447C513.948 283.689 502.251 283.689 484.695 274.308C467.139 264.927 460.215 251.138 444.268 231.269C428.321 211.401 421.939 201.458 425.139 199.262C428.339 197.067 418.757 197.049 415.032 194.835C411.308 192.621 420.278 192.639 427.797 184.91C435.316 177.18 413.424 186.561 411.308 186.017C409.192 185.472 413.424 178.287 413.424 178.287L398.001 194.835L435.228 261.063L437.361 262.714L439.809 266.343L446.804 281.947C447.083 282.491 447.276 282.945 447.398 283.253C450.616 292.09 467.402 294.267 482.824 292.035Z" fill="white"/>
<path opacity="0.5" d="M412.322 137.734C424.09 135.92 456.893 155.334 456.893 155.334C438.865 142.633 423.093 130.73 412.305 125.359L392.423 139.875L391.06 141.2C393.368 140.728 402.215 139.222 412.322 137.734Z" fill="white"/>
<path d="M471.633 293.759C459.848 293.759 449.234 290.838 446.611 283.58C445.842 281.439 440.666 272.693 434.109 261.698C406.254 214.812 377.001 163.717 382.579 151.252C387.824 139.494 403.334 129.787 413.598 123.364C416.214 121.822 418.741 120.125 421.17 118.283C421.799 117.757 438.078 108.031 438.952 107.668C446.541 104.493 481.303 100.066 482.789 99.8844C483.226 99.7937 494.732 97.6527 500.729 99.8844C504.611 101.354 531.207 122.239 552.574 139.022C564.15 148.095 574.134 155.969 576.967 157.929C585.884 164.098 589.067 172.336 589.067 177.997C589.003 179.048 588.688 180.065 588.151 180.959C587.613 181.852 586.871 182.592 585.989 183.114C580.831 186.743 569.553 188.103 555.966 182.714C546.472 178.94 530.455 169.632 509.577 155.715C516.571 190.281 526.171 236.84 530 253.388C530.902 257.311 530.476 261.436 528.794 265.073C527.427 268.239 525.663 271.204 523.548 273.891C511.868 287.735 497.652 290.783 482.894 292.888C479.164 293.446 475.401 293.737 471.633 293.759ZM493.315 100.701C489.876 100.755 486.445 101.076 483.051 101.663C482.632 101.663 446.978 106.253 439.599 109.338C438.638 109.791 423.058 119.1 422.271 119.698C419.782 121.597 417.183 123.336 414.49 124.906C404.418 131.22 389.206 140.764 384.17 152.123C378.505 164.824 415.644 227.259 435.595 260.845C442.712 272.82 447.415 280.804 448.255 283.036C451.35 291.6 468.276 293.287 482.701 291.219C497.127 289.15 511.011 286.193 522.289 272.82C524.271 270.243 525.928 267.414 527.22 264.401C528.723 261.149 529.105 257.46 528.304 253.95C524.387 237.039 514.525 188.865 507.426 154.155C507.392 153.978 507.408 153.794 507.474 153.626C507.539 153.458 507.65 153.314 507.793 153.211C507.936 153.114 508.103 153.062 508.274 153.062C508.445 153.062 508.612 153.114 508.755 153.211C530.402 167.727 546.944 177.398 556.596 181.208C569.5 186.343 580.376 185.128 584.992 181.825C585.628 181.453 586.17 180.931 586.574 180.3C586.978 179.669 587.233 178.949 587.318 178.196C587.318 173.007 584.346 165.405 576.005 159.635C573.12 157.639 563.118 149.782 551.525 140.673C531.364 124.851 503.772 103.169 500.135 101.79C497.934 101.043 495.63 100.676 493.315 100.701Z" fill="#2E353A"/>
<path d="M391.916 140.347C391.916 140.347 385.534 147.605 383.051 150.961C369.727 168.725 327.324 225.644 326.852 230.235C326.38 234.825 328.391 237.91 338.76 242.047C349.128 246.184 418.494 174.059 418.494 174.059" fill="white"/>
<g style="mix-blend-mode:multiply" opacity="0.8">
<path d="M392.021 140.564L391.129 141.163C389.835 142.651 387.038 145.899 384.869 148.566L352.661 192.403C352.661 192.403 351.664 193.565 350.09 195.488C338.008 212.199 327.481 227.277 326.834 229.963C326.834 230.053 326.834 230.144 326.834 230.217C326.415 234.553 328.443 237.856 338.76 241.974C340.596 242.7 344.233 241.067 349.006 237.892C346.581 237.386 344.264 236.427 342.169 235.061C336.312 231.197 341.103 227.332 341.103 227.332C341.103 227.332 348.709 230.489 356.21 232.612C357.767 231.396 359.393 230.09 361.054 228.711C359.456 227.625 357.942 226.411 356.525 225.082C350.143 219.022 344.827 212.943 344.827 212.943L393.577 142.343L392.021 140.564Z" fill="#92E3A9"/>
</g>
<path opacity="0.5" d="M392.021 140.564L391.129 141.163C389.835 142.651 387.038 145.899 384.869 148.566L352.661 192.403C352.661 192.403 351.664 193.565 350.09 195.488C338.008 212.199 327.481 227.277 326.834 229.963C326.834 230.053 326.834 230.144 326.834 230.217C326.415 234.553 328.443 237.856 338.76 241.974C340.596 242.7 344.233 241.067 349.006 237.892C346.581 237.386 344.264 236.427 342.169 235.061C336.312 231.197 341.103 227.332 341.103 227.332C341.103 227.332 348.709 230.489 356.21 232.612C357.767 231.396 359.393 230.09 361.054 228.711C359.456 227.625 357.942 226.411 356.525 225.082C350.143 219.022 344.827 212.943 344.827 212.943L393.577 142.343L392.021 140.564Z" fill="white"/>
<path d="M339.564 243.1C339.171 243.104 338.78 243.037 338.41 242.9C328.758 239.035 325.366 235.642 325.943 230.199C326.415 225.681 361.474 178.305 382.316 150.471C384.799 147.169 390.972 140.111 391.234 139.821C391.309 139.724 391.401 139.645 391.507 139.587C391.612 139.529 391.728 139.494 391.847 139.484C391.965 139.475 392.085 139.49 392.198 139.53C392.31 139.57 392.414 139.633 392.503 139.716C392.591 139.799 392.662 139.9 392.711 140.013C392.761 140.125 392.787 140.247 392.79 140.371C392.792 140.494 392.77 140.617 392.725 140.731C392.68 140.846 392.613 140.95 392.528 141.036C392.528 141.036 386.128 148.294 383.698 151.596C350.02 196.559 328.023 227.495 327.744 230.398C327.342 234.263 329.073 237.275 339.109 241.285C346.331 244.17 390.185 202.311 417.9 173.479C418.064 173.308 418.288 173.212 418.52 173.212C418.753 173.212 418.977 173.308 419.141 173.479C419.306 173.65 419.398 173.881 419.398 174.123C419.398 174.365 419.306 174.596 419.141 174.767C412.199 181.88 352.958 243.1 339.564 243.1Z" fill="#2E353A"/>
<path d="M532.273 137.044L508.283 153.81C511.78 153.302 528.356 147.205 528.356 147.205" fill="white"/>
<path d="M508.283 154.718C508.107 154.72 507.935 154.666 507.791 154.562C507.646 154.457 507.537 154.309 507.479 154.137C507.405 153.948 507.396 153.739 507.453 153.544C507.511 153.349 507.631 153.18 507.793 153.066L531.801 136.301C531.895 136.233 532.001 136.184 532.113 136.159C532.224 136.134 532.34 136.133 532.452 136.155C532.565 136.177 532.672 136.222 532.767 136.287C532.863 136.353 532.944 136.438 533.008 136.537C533.135 136.74 533.181 136.986 533.135 137.224C533.089 137.461 532.956 137.67 532.763 137.807L513.092 151.56C519.124 149.637 527.954 146.407 528.077 146.353C528.309 146.273 528.561 146.293 528.779 146.407C528.998 146.521 529.163 146.72 529.24 146.961C529.316 147.201 529.297 147.464 529.187 147.69C529.078 147.916 528.886 148.088 528.654 148.167C527.972 148.403 511.885 154.3 508.405 154.808L508.283 154.718Z" fill="#2E353A"/>
<path d="M531.294 147.605C531.091 147.601 530.895 147.525 530.739 147.389C530.584 147.254 530.477 147.068 530.437 146.861C530.396 146.625 530.447 146.382 530.578 146.185C530.709 145.988 530.91 145.853 531.137 145.809L536.522 144.792C536.751 144.75 536.988 144.802 537.18 144.937C537.373 145.073 537.507 145.281 537.554 145.518C537.576 145.638 537.576 145.76 537.552 145.879C537.528 145.998 537.481 146.111 537.414 146.211C537.347 146.311 537.262 146.396 537.162 146.461C537.063 146.526 536.953 146.569 536.837 146.589L531.451 147.605H531.294Z" fill="#2E353A"/>
<path d="M353.552 212.617C349.85 212.502 346.168 213.227 342.764 214.74L353.552 212.617Z" fill="white"/>
<path d="M342.764 215.701C342.532 215.747 342.292 215.695 342.097 215.557C341.902 215.419 341.767 215.207 341.723 214.966C341.679 214.726 341.729 214.477 341.862 214.274C341.995 214.072 342.2 213.932 342.432 213.887C345.962 212.313 349.782 211.564 353.622 211.691C353.737 211.7 353.849 211.733 353.952 211.787C354.055 211.842 354.146 211.916 354.221 212.007C354.296 212.099 354.352 212.204 354.388 212.318C354.423 212.432 354.436 212.552 354.427 212.671C354.405 212.91 354.294 213.131 354.117 213.287C353.941 213.442 353.714 213.521 353.483 213.506C349.924 213.398 346.385 214.098 343.114 215.556C343.009 215.631 342.889 215.681 342.764 215.701Z" fill="#2E353A"/>
<path d="M405.834 187.741C405.834 187.741 419.316 183.459 422.883 180.61L405.834 187.741Z" fill="white"/>
<path d="M405.835 188.648C405.603 188.681 405.367 188.618 405.181 188.472C404.994 188.326 404.87 188.108 404.838 187.868C404.805 187.627 404.866 187.383 405.007 187.189C405.148 186.995 405.358 186.867 405.59 186.833C405.712 186.833 418.949 182.588 422.359 179.866C422.542 179.72 422.774 179.655 423.003 179.685C423.232 179.716 423.441 179.839 423.582 180.029C423.719 180.221 423.779 180.46 423.75 180.697C423.72 180.934 423.604 181.149 423.425 181.299C419.753 184.221 406.656 188.394 406.097 188.557C406.016 188.606 405.927 188.636 405.835 188.648Z" fill="#2E353A"/>
<path d="M426.188 179.195C426.188 179.195 428.391 177.199 429.213 177.199L426.188 179.195Z" fill="white"/>
<path d="M426.188 180.101C426.062 180.1 425.939 180.072 425.824 180.019C425.71 179.966 425.608 179.889 425.523 179.793C425.362 179.62 425.272 179.389 425.272 179.149C425.272 178.908 425.362 178.677 425.523 178.505C426.512 177.446 427.756 176.682 429.125 176.291C429.357 176.291 429.579 176.387 429.743 176.557C429.907 176.727 430 176.958 430 177.198C429.995 177.437 429.901 177.665 429.738 177.835C429.575 178.004 429.356 178.101 429.125 178.105C428.225 178.577 427.399 179.189 426.677 179.92C426.537 180.033 426.365 180.096 426.188 180.101Z" fill="#2E353A"/>
<path d="M508.283 154.717C508.066 154.714 507.858 154.63 507.697 154.48C507.537 154.33 507.434 154.124 507.408 153.901L505.223 130.585C505.211 130.466 505.222 130.346 505.256 130.231C505.289 130.116 505.344 130.01 505.417 129.917C505.49 129.824 505.58 129.747 505.682 129.691C505.783 129.634 505.895 129.599 506.009 129.587C506.124 129.575 506.24 129.587 506.351 129.621C506.461 129.656 506.564 129.713 506.653 129.789C506.743 129.864 506.817 129.958 506.871 130.063C506.926 130.169 506.96 130.284 506.971 130.404L509.174 153.737C509.186 153.856 509.175 153.975 509.142 154.089C509.109 154.203 509.054 154.309 508.981 154.4C508.907 154.491 508.817 154.566 508.715 154.621C508.613 154.675 508.502 154.708 508.388 154.717H508.283Z" fill="#2E353A"/>
<path d="M326.799 230.471C326.799 230.471 323.704 242.755 343.551 247.853C352.975 250.266 415.347 265.998 415.347 265.998C415.347 265.998 420.925 253.587 417.742 253.587C414.56 253.587 357.05 213.905 357.05 213.905" fill="white"/>
<path d="M336.067 245.15L408.387 264.311L410.311 259.557C410.311 259.557 383.068 253.896 366.055 245.041C349.041 236.186 347.957 238.963 342.117 235.116C336.277 231.269 341.05 227.386 341.05 227.386C341.05 227.386 357.015 234.009 365.53 234.553C374.046 235.098 362.872 231.251 356.49 225.173C353.85 222.669 351.402 220.147 349.496 218.078L326.764 230.453C326.764 230.453 324.561 239.362 336.067 245.15Z" fill="#92E3A9"/>
<path opacity="0.5" d="M336.067 245.15L408.387 264.311L410.311 259.557C410.311 259.557 383.068 253.896 366.055 245.041C349.041 236.186 347.957 238.963 342.117 235.116C336.277 231.269 341.05 227.386 341.05 227.386C341.05 227.386 357.015 234.009 365.53 234.553C374.046 235.098 362.872 231.251 356.49 225.173C353.85 222.669 351.402 220.147 349.496 218.078L326.764 230.453C326.764 230.453 324.561 239.362 336.067 245.15Z" fill="white"/>
<path d="M415.347 267.05H415.137C415.137 267.05 352.765 251.246 343.341 248.906C335.472 246.892 330.139 243.462 327.499 238.908C325.961 236.385 325.41 233.347 325.96 230.416C326.022 230.185 326.167 229.988 326.366 229.866C326.565 229.744 326.802 229.707 327.027 229.763C327.248 229.827 327.437 229.979 327.552 230.186C327.666 230.393 327.698 230.639 327.639 230.87C327.243 233.35 327.741 235.895 329.037 238.019C331.433 242.192 336.399 245.277 343.76 247.091C352.503 249.359 407.968 263.421 414.857 265.127C417.008 260.192 418.354 255.401 417.742 254.657C414.42 254.657 366.247 221.453 356.63 214.739C356.437 214.603 356.303 214.394 356.258 214.156C356.212 213.919 356.258 213.672 356.385 213.469C356.448 213.37 356.53 213.286 356.625 213.22C356.721 213.154 356.828 213.109 356.94 213.087C357.053 213.065 357.168 213.067 357.28 213.092C357.392 213.117 357.498 213.165 357.591 213.233C380.235 228.892 414.962 252.353 417.777 252.807C418.062 252.811 418.342 252.888 418.592 253.03C418.842 253.173 419.054 253.376 419.211 253.623C420.662 256 417.218 264.093 416.116 266.524C416.048 266.677 415.939 266.808 415.803 266.901C415.668 266.994 415.509 267.046 415.347 267.05Z" fill="#2E353A"/>
<path d="M417.742 253.642C417.742 253.642 438.218 263.585 439.809 266.343C441.4 269.101 445.055 283.435 445.055 287.862C445.055 292.29 444.53 292.271 441.872 292.271C439.215 292.271 432.29 281.784 430.699 279.57C429.108 277.357 425.453 277.357 420.592 274.127C419.238 273.235 418.074 272.065 417.172 270.689C416.27 269.313 415.648 267.76 415.347 266.125L417.742 253.642Z" fill="white"/>
<path d="M441.942 293.179C439.652 293.179 435.875 288.443 430.909 281.33C430.559 280.822 430.279 280.405 430.07 280.133C429.07 279.102 427.819 278.374 426.45 278.028C424.244 277.214 422.138 276.137 420.173 274.816C418.702 273.856 417.436 272.592 416.456 271.104C415.475 269.615 414.8 267.932 414.472 266.161C414.464 266.071 414.464 265.98 414.472 265.889L416.868 253.46C416.895 253.326 416.949 253.2 417.028 253.091C417.106 252.981 417.207 252.891 417.322 252.825C417.442 252.763 417.574 252.73 417.707 252.73C417.841 252.73 417.972 252.763 418.092 252.825C421.589 254.494 438.9 263.022 440.543 265.871C442.187 268.72 445.981 283.308 445.981 287.862C445.981 292.417 445.177 293.179 441.942 293.179ZM416.238 266.089C416.55 267.577 417.145 268.986 417.989 270.232C418.833 271.479 419.908 272.538 421.152 273.347C423.008 274.586 424.997 275.597 427.079 276.359C428.763 276.813 430.286 277.757 431.468 279.08C431.678 279.352 431.975 279.77 432.325 280.296C438.725 289.477 441.068 291.401 441.942 291.401C444.25 291.401 444.25 291.4 444.25 287.899C444.25 283.616 440.613 269.518 439.005 266.833C437.99 265.018 426.188 258.849 418.319 254.984L416.238 266.089Z" fill="#2E353A"/>
<path d="M408.999 264.837C408.913 264.854 408.824 264.854 408.737 264.837C408.627 264.802 408.524 264.744 408.436 264.667C408.348 264.59 408.275 264.496 408.223 264.389C408.171 264.282 408.14 264.165 408.132 264.046C408.124 263.927 408.14 263.807 408.178 263.694L411.36 253.442C411.392 253.325 411.447 253.215 411.521 253.12C411.595 253.026 411.686 252.947 411.79 252.89C411.894 252.833 412.008 252.798 412.125 252.787C412.242 252.777 412.36 252.791 412.472 252.828C412.584 252.866 412.687 252.927 412.776 253.007C412.864 253.088 412.936 253.185 412.987 253.295C413.039 253.405 413.068 253.524 413.074 253.646C413.08 253.768 413.062 253.89 413.021 254.004L409.839 264.256C409.772 264.43 409.656 264.578 409.506 264.681C409.356 264.785 409.179 264.839 408.999 264.837Z" fill="#2E353A"/>
<path d="M564.254 176.328C564.254 176.328 559.009 195.089 556.805 206.121C554.602 217.153 539.792 261.317 539.792 261.317L552.556 269.591C552.556 269.591 580.743 208.988 586.111 195.706C591.48 182.424 589.836 172.517 584.52 167.001" fill="white"/>
<path d="M552.556 270.552C552.395 270.548 552.237 270.498 552.102 270.407L539.337 262.133C539.168 262.025 539.039 261.86 538.972 261.665C538.905 261.47 538.904 261.258 538.97 261.063C539.11 260.627 553.868 216.844 555.948 206.012C558.029 195.18 563.38 176.327 563.38 176.128C563.445 175.887 563.599 175.683 563.809 175.561C564.019 175.438 564.267 175.407 564.499 175.475C564.731 175.542 564.927 175.702 565.045 175.92C565.164 176.138 565.193 176.395 565.128 176.636C565.128 176.817 559.795 195.488 557.697 206.357C555.704 216.717 542.852 255.147 540.876 260.99L552.224 268.339C555.721 260.7 580.393 207.536 585.289 195.343C590.01 183.567 589.503 173.569 583.891 167.636C583.728 167.468 583.637 167.239 583.637 167.001C583.637 166.763 583.728 166.535 583.891 166.366C584.053 166.198 584.273 166.103 584.503 166.103C584.732 166.103 584.952 166.198 585.115 166.366C591.269 172.735 591.916 183.567 586.863 196.051C581.617 209.169 553.64 269.427 553.343 270.044C553.291 270.159 553.216 270.261 553.122 270.342C553.029 270.424 552.919 270.483 552.801 270.516L552.556 270.552Z" fill="#2E353A"/>
<path d="M542.205 255.002C543.167 255.002 555.284 261.934 555.284 261.934L542.205 255.002Z" fill="#2E353A"/>
<path d="M458.344 155.334C455.406 154.826 439.721 144.157 428.95 135.52C418.179 126.883 412.304 125.359 412.304 125.359L404.96 130.44C403.849 126.726 404.201 122.707 405.939 119.263C408.877 113.674 419.158 108.086 429.44 104.021C439.721 99.9568 451.472 96.4912 458.833 96.4912C466.195 96.4912 468.136 99.5395 468.136 103.604C468.136 107.668 468.136 120.369 465.688 130.022C463.24 139.675 458.344 155.334 458.344 155.334Z" fill="white"/>
<g style="mix-blend-mode:multiply">
<path d="M453.728 102.352C453.728 102.352 449.199 116.432 444.67 120.66C441.173 123.703 437.389 126.372 433.374 128.625C433.374 128.625 430.664 118.773 423.88 118.773C417.095 118.773 406.691 123.472 406.691 123.472C406.691 123.472 406.691 119.716 415.277 115.017L423.88 110.336L443.778 102.352H453.728Z" fill="#92E3A9"/>
</g>
<path opacity="0.5" d="M453.728 102.352C453.728 102.352 449.199 116.432 444.67 120.66C441.173 123.703 437.389 126.372 433.374 128.625C433.374 128.625 430.664 118.773 423.88 118.773C417.095 118.773 406.691 123.472 406.691 123.472C406.691 123.472 406.691 119.716 415.277 115.017L423.88 110.336L443.778 102.352H453.728Z" fill="white"/>
<path d="M458.344 156.241H458.186C454.934 155.679 438.83 144.593 428.461 136.282C419.455 129.025 413.895 126.865 412.479 126.394L405.484 131.238C405.37 131.31 405.243 131.357 405.111 131.375C404.978 131.394 404.844 131.384 404.715 131.347C404.59 131.302 404.475 131.228 404.381 131.131C404.288 131.033 404.216 130.915 404.173 130.785C403.574 128.826 403.356 126.763 403.533 124.717C403.711 122.67 404.279 120.68 405.205 118.864C408.702 112.078 421.746 106.162 429.178 103.205C435.018 100.901 449.601 95.5298 458.903 95.5298C465.74 95.5298 469.08 98.1426 469.08 103.55C469.08 107.723 469.08 120.442 466.597 130.204C464.114 139.966 459.288 155.498 459.235 155.606C459.18 155.803 459.061 155.973 458.898 156.088C458.736 156.204 458.54 156.258 458.344 156.241ZM412.304 124.452H412.514C412.758 124.452 418.704 126.122 429.492 134.776C439.616 142.887 453.727 152.54 457.767 154.191C458.816 150.78 462.75 137.861 464.761 129.66C467.191 120.134 467.191 107.596 467.191 103.477C467.191 100.411 466.195 97.2716 458.763 97.2716C452.433 97.2716 441.837 100.03 429.685 104.838C417.532 109.646 409.052 115.071 406.638 119.662C405.192 122.513 404.758 125.802 405.415 128.952L411.744 124.579C411.911 124.472 412.109 124.427 412.304 124.452Z" fill="#2E353A"/>
<path d="M414.752 90.8485C420.488 97.413 424.515 105.388 426.45 114.019C429.632 128.372 449.636 145.246 454.427 145.246C459.218 145.246 458.886 120.642 457.294 113.475C455.703 106.308 449.321 86.9837 449.321 86.9837C449.321 86.9837 423.862 74.2825 414.752 90.8485Z" fill="white"/>
<path d="M454.497 146.153C449.356 146.153 428.898 128.807 425.663 114.219C423.745 105.759 419.8 97.9386 414.192 91.4835C414.058 91.3428 413.971 91.1602 413.946 90.9636C413.92 90.7669 413.958 90.5671 414.053 90.3948C423.39 73.3026 449.496 86.0219 449.758 86.1671C449.864 86.2188 449.959 86.292 450.037 86.3824C450.115 86.4728 450.175 86.5785 450.213 86.6933C450.475 87.4735 456.63 106.126 458.221 113.275C459.603 119.553 460.25 140.183 456.578 144.992C456.342 145.34 456.031 145.626 455.669 145.827C455.308 146.029 454.907 146.14 454.497 146.153ZM415.906 90.7214C421.515 97.3127 425.452 105.252 427.359 113.819C430.541 128.063 450.423 144.339 454.497 144.339C454.497 144.339 454.829 144.339 455.196 143.849C458.169 139.984 457.976 120.261 456.508 113.674C455.039 107.088 449.513 90.3585 448.674 87.6368C445.754 86.2941 424.159 76.9134 415.906 90.7214Z" fill="#2E353A"/>
<g style="mix-blend-mode:multiply">
<path d="M453.728 102.352C453.728 102.352 449.199 116.432 444.67 120.66C441.173 123.703 437.389 126.372 433.375 128.625C433.375 128.625 430.664 118.773 423.88 118.773C417.096 118.773 406.692 123.472 406.692 123.472C406.692 123.472 406.692 119.716 415.277 115.017L423.88 110.336L443.779 102.352H453.728Z" fill="#92E3A9"/>
</g>
<path opacity="0.5" d="M453.728 102.352C453.728 102.352 449.199 116.432 444.67 120.66C441.173 123.703 437.389 126.372 433.375 128.625C433.375 128.625 430.664 118.773 423.88 118.773C417.096 118.773 406.692 123.472 406.692 123.472C406.692 123.472 406.692 119.716 415.277 115.017L423.88 110.336L443.779 102.352H453.728Z" fill="white"/>
<path d="M414.752 90.8485C420.489 97.413 424.515 105.388 426.45 114.019C429.633 128.372 449.636 145.246 454.427 145.246C459.218 145.246 458.886 120.642 457.295 113.475C455.704 106.308 449.322 86.9837 449.322 86.9837C449.322 86.9837 423.862 74.2825 414.752 90.8485Z" fill="white"/>
<path d="M454.497 146.153C449.356 146.153 428.898 128.807 425.663 114.219C423.746 105.759 419.8 97.9386 414.193 91.4835C414.058 91.3428 413.971 91.1602 413.946 90.9636C413.921 90.7669 413.958 90.5671 414.053 90.3948C423.39 73.3026 449.496 86.0219 449.758 86.1671C449.864 86.2188 449.959 86.292 450.037 86.3824C450.115 86.4728 450.175 86.5785 450.213 86.6933C450.475 87.4735 456.63 106.126 458.221 113.275C459.603 119.553 460.25 140.183 456.578 144.992C456.342 145.34 456.031 145.626 455.67 145.827C455.308 146.029 454.907 146.14 454.497 146.153ZM415.906 90.7214C421.516 97.3127 425.452 105.252 427.359 113.819C430.542 128.063 450.423 144.339 454.497 144.339C454.497 144.339 454.829 144.339 455.196 143.849C458.169 139.984 457.977 120.261 456.508 113.674C455.039 107.088 449.514 90.3585 448.674 87.6368C445.754 86.2941 424.159 76.9134 415.906 90.7214Z" fill="#2E353A"/>
<path d="M397.948 64.2483C401.7 74.8348 406.34 85.0592 411.814 94.8038C419.893 108.576 435.49 116.378 444.145 112.785C452.801 109.192 458.693 97.598 456.385 79.6349C455.878 75.6794 452.556 74.0645 451.489 70.5626C447.66 57.8614 443.761 45.6138 442.414 40.9507C440.666 34.9448 426.817 28.9571 412.391 33.1485C397.966 37.3399 395.64 49.8597 397.948 64.2483Z" fill="white"/>
<path d="M445.876 53.2528C445.876 53.2528 440.631 57.2991 428.845 54.9584C417.06 52.6178 408.947 53.144 409.401 56.3737C409.856 59.6034 410.765 63.8674 410.765 63.8674C410.765 63.8674 396.619 51.1662 409.436 47.7913C418.669 45.3055 424.002 49.0796 426.258 49.6058C428.513 50.132 445.876 53.2528 445.876 53.2528Z" fill="#92E3A9"/>
<path opacity="0.5" d="M445.876 53.2528C445.876 53.2528 440.631 57.2991 428.845 54.9584C417.06 52.6178 408.947 53.144 409.401 56.3737C409.856 59.6034 410.765 63.8674 410.765 63.8674C410.765 63.8674 396.619 51.1662 409.436 47.7913C418.669 45.3055 424.002 49.0796 426.258 49.6058C428.513 50.132 445.876 53.2528 445.876 53.2528Z" fill="white"/>
<path d="M439.319 114.636C429.929 114.636 417.707 106.671 411.062 95.3303C405.541 85.5297 400.86 75.2445 397.074 64.5934C397.064 64.5456 397.064 64.4961 397.074 64.4482C394.189 46.5758 399.12 36.0338 412.129 32.2598C427.219 27.8688 441.4 34.3283 443.236 40.6607C443.866 42.8562 444.985 46.7029 446.541 51.5475C448.289 56.9908 450.265 63.5773 452.294 70.3271C452.801 71.6699 453.549 72.9012 454.497 73.956C455.911 75.4963 456.859 77.4329 457.225 79.5264C459.812 99.685 452.329 110.372 444.46 113.638C442.823 114.308 441.078 114.647 439.319 114.636ZM398.805 64.0128C402.531 74.5136 407.129 84.6583 412.549 94.3323C420.68 108.177 436.049 115.162 443.831 111.933C451.087 108.921 457.976 98.8866 455.511 79.7441C455.19 77.9954 454.396 76.3778 453.22 75.081C452.115 73.8238 451.265 72.3491 450.72 70.7444C448.692 64.0128 446.646 57.4081 444.967 51.9829C443.481 47.1928 442.292 43.328 441.645 41.0962C440.176 36.052 427.254 29.6832 412.689 33.8384C400.658 37.431 396.13 47.2653 398.805 64.0128Z" fill="#2E353A"/>
<path d="M408.352 84.0079C408.352 84.0079 399.102 79.8165 398.525 84.0079C397.948 88.1993 402.022 91.2657 406.027 93.0801C407.025 93.6469 408.163 93.8926 409.297 93.786C410.43 93.6793 411.507 93.2252 412.391 92.4814" fill="white"/>
<path d="M408.947 94.6771C407.825 94.6626 406.718 94.4094 405.695 93.9332C399.977 91.393 397.127 87.8548 397.669 83.9719C397.715 83.528 397.865 83.1026 398.106 82.7326C398.346 82.3626 398.671 82.0592 399.05 81.8489C401.83 80.2341 408.003 82.9558 408.702 83.2824C408.899 83.39 409.049 83.5715 409.121 83.7899C409.194 84.0083 409.183 84.2471 409.092 84.4576C409 84.6682 408.835 84.8346 408.629 84.9231C408.424 85.0115 408.193 85.0152 407.985 84.9335C405.677 83.8811 401.428 82.5566 399.889 83.4275C399.749 83.5069 399.631 83.6217 399.546 83.7613C399.46 83.9009 399.41 84.0607 399.4 84.2259C398.84 88.2721 403.526 90.9938 406.394 92.2639C407.236 92.7493 408.196 92.9685 409.156 92.8943C410.116 92.8201 411.034 92.4559 411.797 91.8466C411.965 91.6991 412.181 91.623 412.401 91.6334C412.621 91.6438 412.829 91.74 412.984 91.9027C413.139 92.0655 413.228 92.2828 413.235 92.5112C413.242 92.7396 413.166 92.9624 413.021 93.1348C411.9 94.1645 410.444 94.7155 408.947 94.6771Z" fill="#2E353A"/>
<path d="M446.104 60.3113C446.104 60.3113 435.805 57.7711 440.211 72.0146C441.085 74.827 447.083 78.1111 447.083 78.1111C447.083 78.1111 446.593 82.6836 444.145 83.1916" fill="white"/>
<path d="M444.128 84.0988C443.927 84.0955 443.733 84.0221 443.578 83.8904C443.422 83.7587 443.314 83.5764 443.271 83.373C443.248 83.255 443.248 83.1334 443.271 83.0154C443.294 82.8974 443.34 82.7854 443.405 82.6857C443.47 82.5861 443.553 82.5009 443.65 82.4351C443.748 82.3693 443.856 82.3242 443.97 82.3025C445.229 82.0303 445.876 79.8711 446.121 78.6736C444.513 77.7301 440.211 75.0447 439.389 72.3593C437.746 67.0611 437.885 63.287 439.791 61.1459C442.134 58.515 446.121 59.4766 446.296 59.5129C446.521 59.5689 446.715 59.7149 446.836 59.9188C446.957 60.1228 446.996 60.3683 446.943 60.6016C446.918 60.7182 446.871 60.8285 446.805 60.9258C446.738 61.0232 446.654 61.1057 446.556 61.1683C446.458 61.231 446.349 61.2725 446.235 61.2905C446.121 61.3085 446.005 61.3025 445.894 61.2729C445.894 61.2729 442.711 60.529 441.068 62.3798C439.424 64.2305 439.634 67.2425 441.068 71.7968C441.627 73.6113 445.317 76.1697 447.503 77.3672C447.654 77.4571 447.778 77.5904 447.859 77.7513C447.939 77.9122 447.973 78.0939 447.957 78.2744C447.957 78.8188 447.31 83.5363 444.32 84.1532L444.128 84.0988Z" fill="#2E353A"/>
<path d="M438.742 93.3525C438.742 93.3525 431.398 94.8766 428.461 91.3203L438.742 93.3525Z" fill="white"/>
<path d="M435.228 94.677C433.877 94.7882 432.519 94.6069 431.24 94.1446C429.961 93.6823 428.788 92.9492 427.796 91.9916C427.722 91.9011 427.665 91.7961 427.629 91.6829C427.594 91.5696 427.58 91.4501 427.589 91.3313C427.598 91.2126 427.629 91.0967 427.681 90.9906C427.733 90.8844 427.805 90.7899 427.892 90.7124C427.98 90.635 428.081 90.5761 428.19 90.5392C428.299 90.5023 428.414 90.4881 428.529 90.4974C428.643 90.5066 428.755 90.5392 428.857 90.5932C428.96 90.6472 429.051 90.7217 429.125 90.8122C431.696 93.9331 438.515 92.6267 438.585 92.6267C438.697 92.6003 438.812 92.598 438.925 92.6197C439.037 92.6415 439.144 92.6869 439.239 92.7532C439.334 92.8195 439.415 92.9052 439.477 93.0052C439.539 93.1051 439.58 93.2171 439.599 93.3343C439.622 93.4511 439.623 93.5714 439.601 93.6884C439.579 93.8054 439.535 93.9167 439.472 94.0162C439.409 94.1156 439.327 94.2011 439.232 94.2678C439.137 94.3345 439.03 94.381 438.917 94.4048C437.697 94.6055 436.463 94.6966 435.228 94.677Z" fill="#2E353A"/>
<path d="M427.971 69.4742C427.971 69.4742 422.586 67.442 419.648 69.9822C418.076 71.1178 416.86 72.7078 416.151 74.5547" fill="white"/>
<path d="M416.221 75.4438H416.011C415.9 75.4142 415.795 75.3621 415.703 75.2904C415.611 75.2187 415.533 75.1289 415.475 75.026C415.416 74.9232 415.378 74.8094 415.362 74.6912C415.346 74.5729 415.353 74.4526 415.382 74.337C416.113 72.3142 417.402 70.5598 419.089 69.2928C422.376 66.4623 428.041 68.5489 428.269 68.6396C428.378 68.6781 428.479 68.7391 428.565 68.8189C428.651 68.8988 428.72 68.9958 428.769 69.1043C428.818 69.2127 428.846 69.3303 428.85 69.4501C428.854 69.5698 428.835 69.6891 428.793 69.8009C428.714 70.027 428.552 70.2114 428.342 70.3134C428.132 70.4155 427.892 70.4269 427.674 70.3452C427.674 70.3452 422.726 68.5308 420.208 70.69C418.822 71.7332 417.739 73.1518 417.078 74.7906C417.021 74.9805 416.908 75.1466 416.753 75.2642C416.599 75.3819 416.412 75.4448 416.221 75.4438Z" fill="#2E353A"/>
<path d="M427.831 78.1656C428.531 79.853 428.391 81.5224 427.517 81.9034C426.642 82.2844 425.383 81.2502 424.684 79.5627C423.984 77.8753 424.142 76.2241 425.016 75.825C425.89 75.4258 427.149 76.5326 427.831 78.1656Z" fill="#2E353A"/>
<path d="M445.44 69.2746C446.139 70.9439 445.982 72.6132 445.125 73.0124C444.268 73.4116 442.974 72.341 442.292 70.6717C441.61 69.0024 441.733 67.315 442.607 66.934C443.481 66.5529 444.74 67.6053 445.44 69.2746Z" fill="#2E353A"/>
<path d="M405.782 86.4212C405.782 86.4212 411.622 82.0121 410.555 78.1473C409.489 74.2825 407.373 74.2825 409.506 72.087C411.64 69.8915 413.213 68.7665 412.689 65.4642C412.164 62.1619 403.649 56.6278 406.306 53.3255C408.964 50.0232 407.898 46.0677 429.702 51.6562C451.507 57.2447 465.338 48.3539 458.956 40.08C452.573 31.8061 447.258 30.6992 447.258 30.6992C447.258 30.6992 459.498 25.2559 449.391 19.6492C439.284 14.0425 416.413 14.2058 403.649 24.6208C390.884 35.0358 393.542 43.8722 393.542 43.8722C393.542 43.8722 386.635 44.979 386.093 56.0291C385.551 67.0791 405.782 86.4212 405.782 86.4212Z" fill="#2E353A"/>
<path d="M440.579 49.4605C435.931 49.258 431.354 48.2013 427.062 46.3396C423.699 44.8512 420.115 43.9676 416.466 43.7268C408.02 43.7268 406.272 48.6984 406.202 48.9162C406.178 48.9936 406.14 49.0653 406.089 49.1269C406.038 49.1884 405.975 49.2385 405.905 49.2742C405.834 49.3098 405.758 49.3302 405.68 49.3342C405.601 49.3381 405.523 49.3256 405.45 49.2972C405.375 49.2725 405.306 49.2327 405.246 49.18C405.186 49.1273 405.137 49.0628 405.101 48.9903C405.065 48.9177 405.044 48.8386 405.037 48.7573C405.031 48.6761 405.041 48.5944 405.065 48.517C405.153 48.2811 407.111 42.4748 416.466 42.4748C420.255 42.7074 423.977 43.6222 427.464 45.1784C432.902 47.1924 438.55 49.2791 445.649 47.646C449.496 46.757 451.752 45.3235 452.311 43.4184C453.046 40.9688 450.773 38.4105 450.755 38.3742C450.644 38.2585 450.582 38.1019 450.582 37.9387C450.582 37.7755 450.644 37.6188 450.755 37.5032C450.872 37.391 451.025 37.3286 451.184 37.3286C451.343 37.3286 451.496 37.391 451.612 37.5032C451.717 37.6302 454.375 40.6241 453.448 43.7631C452.731 46.14 450.196 47.8456 445.894 48.8436C444.148 49.2442 442.367 49.451 440.579 49.4605Z" fill="white"/>
<path d="M401.568 47.9367C401.409 47.9227 401.261 47.8447 401.156 47.7193C401.052 47.5938 400.999 47.4309 401.008 47.2653C401.008 47.1383 402.04 35.1629 412.269 32.4775C418.302 30.8989 425.279 32.0783 430.891 33.0218C434.389 33.6206 437.518 34.1468 438.83 33.6206C438.974 33.5886 439.124 33.6115 439.253 33.6852C439.382 33.7588 439.481 33.8783 439.532 34.0216C439.583 34.1649 439.583 34.3225 439.531 34.4655C439.479 34.6085 439.379 34.7272 439.25 34.8C437.641 35.4169 434.581 34.9089 430.699 34.2556C425.191 33.3121 418.337 32.169 412.566 33.675C403.159 36.1608 402.215 47.2472 402.197 47.356C402.193 47.4371 402.173 47.5164 402.139 47.5895C402.105 47.6626 402.057 47.728 401.999 47.782C401.94 47.8359 401.872 47.8773 401.798 47.9039C401.724 47.9304 401.646 47.9416 401.568 47.9367Z" fill="white"/>
<path d="M394.801 66.6617C394.683 66.6595 394.567 66.6217 394.469 66.5528C392.899 65.1867 391.682 63.436 390.928 61.4592C390.174 59.4823 389.906 57.3416 390.15 55.2306C390.639 47.247 396.55 47.1562 396.62 47.1562C396.762 47.1815 396.891 47.2582 396.984 47.3727C397.077 47.4873 397.129 47.6324 397.129 47.7822C397.129 47.9321 397.077 48.0772 396.984 48.1917C396.891 48.3063 396.762 48.383 396.62 48.4082C396.41 48.4082 391.759 48.5171 391.374 55.3032C391.137 57.2018 391.36 59.1316 392.023 60.9183C392.685 62.7051 393.766 64.2923 395.168 65.5367C395.233 65.582 395.288 65.6404 395.33 65.7084C395.372 65.7763 395.401 65.8524 395.414 65.9321C395.427 66.0118 395.424 66.0934 395.406 66.172C395.388 66.2506 395.355 66.3246 395.308 66.3895C395.255 66.4779 395.18 66.5498 395.091 66.5977C395.001 66.6456 394.901 66.6677 394.801 66.6617Z" fill="white"/>
<path d="M398.421 61.5088C398.306 61.5089 398.194 61.4747 398.098 61.4103C398.002 61.3459 397.926 61.2542 397.879 61.146C397.447 60.3182 397.191 59.4042 397.128 58.4654C397.065 57.5267 397.196 56.5847 397.512 55.7026C398.283 53.9731 399.658 52.6114 401.358 51.8922C401.43 51.8601 401.508 51.8436 401.587 51.8438C401.665 51.8439 401.743 51.8606 401.815 51.8928C401.887 51.9251 401.952 51.9722 402.005 52.0314C402.059 52.0906 402.101 52.1605 402.128 52.237C402.185 52.3886 402.182 52.5576 402.12 52.7072C402.058 52.8568 401.941 52.9747 401.796 53.0353C400.403 53.6472 399.273 54.7626 398.613 56.1743C398.366 56.8989 398.269 57.6697 398.329 58.4359C398.389 59.2021 398.605 59.9464 398.963 60.6197C399.029 60.7715 399.034 60.944 398.979 61.1001C398.923 61.2562 398.811 61.3834 398.666 61.4544C398.588 61.4899 398.505 61.5084 398.421 61.5088Z" fill="white"/>
<path d="M399.767 71.3433C399.67 71.3412 399.576 71.3155 399.491 71.2682C399.406 71.2209 399.333 71.1534 399.277 71.0711L397.022 67.8051C396.929 67.6704 396.892 67.5029 396.918 67.3396C396.944 67.1762 397.032 67.0304 397.162 66.9342C397.291 66.8379 397.453 66.7991 397.61 66.8264C397.768 66.8536 397.908 66.9446 398.001 67.0793L400.257 70.3635C400.346 70.4963 400.381 70.6601 400.355 70.8196C400.329 70.9791 400.243 71.1216 400.117 71.2163C400.018 71.2999 399.894 71.3449 399.767 71.3433Z" fill="white"/>
</svg>
