<svg width="625" height="558" viewBox="0 0 625 558" fill="none" xmlns="http://www.w3.org/2000/svg">
<path d="M592.115 280.627C592.115 280.627 592.115 272.807 581.167 261.968C570.219 251.13 563.275 244.843 563.275 244.843C563.275 244.843 557.832 262.735 567.967 273.636C575.407 281.292 583.474 288.312 592.083 294.624L592.115 280.627Z" fill="#92E3A9"/>
<path d="M576.318 329.204C576.318 329.204 576.318 321.384 565.37 310.546C554.422 299.707 547.509 293.42 547.509 293.42C547.509 293.42 542.051 311.312 552.201 322.213C559.641 329.869 567.708 336.89 576.318 343.202V329.204Z" fill="#92E3A9"/>
<path d="M591.426 293.874C591.426 293.874 592.255 286.148 604.235 276.467C616.215 266.785 623.832 261.343 623.832 261.343C623.832 261.343 627.351 279.704 616.153 289.495C607.946 296.324 599.183 302.455 589.956 307.825L591.426 293.874Z" fill="#92E3A9"/>
<path d="M572.345 351.241C572.345 351.241 573.909 343.64 586.906 335.272C599.903 326.905 607.973 322.291 607.973 322.291C607.973 322.291 609.537 340.934 597.385 349.458C588.505 355.389 579.146 360.568 569.405 364.941L572.345 351.241Z" fill="#92E3A9"/>
<path d="M575.927 413.8C575.927 413.8 575.927 405.98 586.875 395.126C597.823 384.272 604.751 378.016 604.751 378.016C604.751 378.016 610.209 395.908 600.059 406.794C592.622 414.458 584.555 421.484 575.942 427.798L575.927 413.8Z" fill="#92E3A9"/>
<path d="M575.755 429.065C575.755 429.065 576.849 421.37 567.622 409.046C558.394 396.721 552.342 389.558 552.342 389.558C552.342 389.558 544.412 406.496 552.873 418.711C559.146 427.35 566.13 435.448 573.753 442.922L575.755 429.065Z" fill="#92E3A9"/>
<path d="M565.01 474.311C565.01 474.311 565.01 466.491 575.958 455.653C586.906 444.814 593.85 438.527 593.85 438.527C593.85 438.527 599.293 456.419 589.158 467.32C581.716 474.979 573.649 482.005 565.042 488.325L565.01 474.311Z" fill="#92E3A9"/>
<path d="M572.282 515.334C572.282 515.334 570.312 507.812 578.085 494.518C585.858 481.224 591.066 473.435 591.066 473.435C591.066 473.435 600.856 489.356 593.834 502.463C588.581 511.754 582.559 520.591 575.833 528.878L572.282 515.334Z" fill="#92E3A9"/>
<path d="M593.099 278.64C592.552 286.738 591.56 294.8 590.128 302.788C585.811 325.028 575.051 339.386 570.75 359.467C566.449 379.549 578.805 405.433 575.442 431.239C572.079 457.045 562.101 471.386 564.963 488.606C567.825 505.825 582.902 552.464 582.902 552.464" stroke="#263238" stroke-linecap="round" stroke-linejoin="round"/>
<path d="M591.332 299.051L603.062 290.042" stroke="#263238" stroke-linecap="round" stroke-linejoin="round"/>
<path d="M591.88 288.681L586.953 279.938" stroke="#263238" stroke-linecap="round" stroke-linejoin="round"/>
<path d="M571.406 358.545C571.406 358.545 581.228 351.178 591.332 343.812" stroke="#263238" stroke-linecap="round" stroke-linejoin="round"/>
<path d="M576.318 343.202C576.318 343.202 568.123 327.155 558.848 316.52" stroke="#263238" stroke-linecap="round" stroke-linejoin="round"/>
<path d="M576.318 424.873C581.921 414.519 589.002 405.035 597.338 396.721" stroke="#263238" stroke-linecap="round" stroke-linejoin="round"/>
<path d="M574.41 435.79C571.43 428.769 567.867 422.01 563.759 415.583C558.035 407.122 557.206 406.027 557.206 406.027" stroke="#263238" stroke-linecap="round" stroke-linejoin="round"/>
<path d="M565.01 488.606C567.504 482.442 570.463 476.476 573.862 470.761C577.264 465.449 581.098 460.427 585.326 455.747" stroke="#263238" stroke-linecap="round" stroke-linejoin="round"/>
<path d="M575.834 528.879C575.264 522.984 576.279 517.045 578.774 511.675C582.872 503.761 587.501 493.392 589.409 489.294" stroke="#263238" stroke-linecap="round" stroke-linejoin="round"/>
<path d="M503.249 384.554C503.249 384.554 502.404 379.674 508.05 371.651C513.696 363.627 517.434 358.982 517.434 358.982C517.434 358.982 522.783 369.618 517.622 377.531C513.789 383.145 509.494 388.429 504.781 393.328L503.249 384.554Z" fill="#92E3A9"/>
<path d="M518.435 413.3C518.435 413.3 517.59 408.42 523.236 400.397C528.882 392.374 532.62 387.729 532.62 387.729C532.62 387.729 537.969 398.364 532.808 406.293C528.972 411.9 524.677 417.178 519.968 422.074L518.435 413.3Z" fill="#92E3A9"/>
<path d="M505.11 392.78C505.11 392.78 503.765 388.088 495.194 383.256C486.623 378.423 481.275 375.889 481.275 375.889C481.275 375.889 481.056 387.791 489.094 392.702C494.98 396.09 501.137 398.983 507.503 401.351L505.11 392.78Z" fill="#92E3A9"/>
<path d="M523.314 426.687C523.314 426.687 521.469 422.089 512.46 418.242C503.451 414.395 497.821 412.393 497.821 412.393C497.821 412.393 498.853 424.248 507.424 428.283C513.635 431.034 520.064 433.263 526.645 434.945L523.314 426.687Z" fill="#92E3A9"/>
<path d="M527.85 466.303C527.85 466.303 527.021 461.424 518.998 455.778C510.975 450.132 505.923 446.988 505.923 446.988C505.923 446.988 504.453 458.796 511.976 464.52C517.471 468.522 523.294 472.054 529.383 475.077L527.85 466.303Z" fill="#92E3A9"/>
<path d="M529.633 475.86C529.633 475.86 528.069 471.168 532.557 462.409C537.046 453.651 540.017 448.537 540.017 448.537C540.017 448.537 546.821 458.296 542.848 466.882C539.855 472.978 536.355 478.811 532.385 484.321L529.633 475.86Z" fill="#92E3A9"/>
<path d="M543.302 515.194C543.302 515.194 543.866 510.283 551.545 504.246C559.224 498.209 564.057 494.721 564.057 494.721C564.057 494.721 566.199 506.435 559.021 512.582C553.763 516.884 548.155 520.74 542.255 524.109L543.302 515.194Z" fill="#92E3A9"/>
<path d="M541.254 503.057C541.254 503.057 540.409 498.178 532.401 492.532C524.394 486.886 519.358 483.742 519.358 483.742C519.358 483.742 517.888 495.55 525.41 501.29C530.91 505.285 536.733 508.816 542.818 511.847L541.254 503.057Z" fill="#92E3A9"/>
<path d="M541.253 529.582C541.253 529.582 541.66 524.64 535.342 517.149C529.023 509.657 524.925 505.341 524.925 505.341C524.925 505.341 520.499 516.382 526.333 523.843C530.609 529.096 535.317 533.982 540.409 538.45L541.253 529.582Z" fill="#92E3A9"/>
<path d="M502.42 383.396C503.644 388.417 505.142 393.367 506.908 398.223C512.023 411.705 520.327 419.54 525.207 431.661C530.087 443.782 525.207 461.377 530.024 477.189C534.841 493.001 542.818 500.915 542.818 512.019C542.818 523.123 538.501 554.012 538.501 554.012" stroke="#263238" stroke-linecap="round" stroke-linejoin="round"/>
<path d="M505.75 396.002L497.414 391.639" stroke="#263238" stroke-linecap="round" stroke-linejoin="round"/>
<path d="M504.281 389.558L506.408 383.553" stroke="#263238" stroke-linecap="round" stroke-linejoin="round"/>
<path d="M524.691 431.161C524.691 431.161 517.731 427.61 510.615 424.076" stroke="#263238" stroke-linecap="round" stroke-linejoin="round"/>
<path d="M519.952 422.074C522.003 415.63 524.702 409.41 528.006 403.509" stroke="#263238" stroke-linecap="round" stroke-linejoin="round"/>
<path d="M528.82 473.279C524.179 467.406 518.711 462.238 512.586 457.936" stroke="#263238" stroke-linecap="round" stroke-linejoin="round"/>
<path d="M531.197 479.91C532.31 475.191 533.811 470.572 535.686 466.1C538.36 460.173 538.814 459.391 538.814 459.391" stroke="#263238" stroke-linecap="round" stroke-linejoin="round"/>
<path d="M542.442 520.449C545.154 517.088 548.158 513.974 551.419 511.143C553.493 509.616 555.439 507.921 557.237 506.076" stroke="#263238" stroke-linecap="round" stroke-linejoin="round"/>
<path d="M542.817 512.019C540.583 508.415 538.078 504.985 535.326 501.759C532.615 498.8 529.664 496.069 526.505 493.595" stroke="#263238" stroke-linecap="round" stroke-linejoin="round"/>
<path d="M540.409 538.45C540.129 534.689 538.85 531.072 536.702 527.971C533.277 523.452 529.242 517.446 527.6 515.084" stroke="#263238" stroke-linecap="round" stroke-linejoin="round"/>
<path d="M59.0303 316.426L52.1801 296.861L59.0303 305.165L53.6502 275.809L61.9706 296.861L64.9109 255.743L69.8062 294.89L75.1863 287.07V296.861L81.5518 283.645L78.1266 306.636L83.9916 302.726L74.7015 315.441L59.0303 316.426Z" fill="#92E3A9"/>
<path d="M80.5662 311.531H55.1201L59.7026 362.908H75.9837L80.5662 311.531Z" fill="#263238" stroke="#263238" stroke-linecap="round" stroke-linejoin="round"/>
<path d="M128.299 362.329H41.6074V545.942H128.299V362.329Z" fill="white" stroke="#263238" stroke-linecap="round" stroke-linejoin="round"/>
<path d="M133.038 362.329H84.9456V545.942H133.038V362.329Z" fill="white" stroke="#263238" stroke-linecap="round" stroke-linejoin="round"/>
<path d="M127.627 362.329H84.9456V545.942H127.627V362.329Z" fill="#263238" stroke="#263238" stroke-linecap="round" stroke-linejoin="round"/>
<path d="M122.825 503.245H84.9456V540.843H122.825V503.245Z" fill="#92E3A9" stroke="#263238" stroke-linecap="round" stroke-linejoin="round"/>
<path d="M122.825 505.278H84.9456V510.095H122.825V505.278Z" fill="white" stroke="#263238" stroke-linecap="round" stroke-linejoin="round"/>
<path d="M122.825 532.96H84.9456V537.778H122.825V532.96Z" fill="white" stroke="#263238" stroke-linecap="round" stroke-linejoin="round"/>
<path d="M92.1241 504.027V551.572" stroke="#263238" stroke-linecap="round" stroke-linejoin="round"/>
<path d="M105.34 504.027V551.572" stroke="#263238" stroke-linecap="round" stroke-linejoin="round"/>
<path d="M116.945 504.027V551.572" stroke="#263238" stroke-linecap="round" stroke-linejoin="round"/>
<path d="M122.825 369.148H84.9456V424.435H122.825V369.148Z" fill="#92E3A9" stroke="#263238" stroke-linecap="round" stroke-linejoin="round"/>
<path d="M122.825 371.463H84.9456V376.937H122.825V371.463Z" fill="white" stroke="#263238" stroke-linecap="round" stroke-linejoin="round"/>
<path d="M122.825 406.903H84.9456V412.377H122.825V406.903Z" fill="white" stroke="#263238" stroke-linecap="round" stroke-linejoin="round"/>
<path d="M92.1241 370.024V424.06" stroke="#263238" stroke-linecap="round" stroke-linejoin="round"/>
<path d="M105.34 370.024V424.06" stroke="#263238" stroke-linecap="round" stroke-linejoin="round"/>
<path d="M116.945 370.024V424.06" stroke="#263238" stroke-linecap="round" stroke-linejoin="round"/>
<path d="M122.825 435.774H84.9456V491.061H122.825V435.774Z" fill="#92E3A9" stroke="#263238" stroke-linecap="round" stroke-linejoin="round"/>
<path d="M122.825 438.089H84.9456V443.563H122.825V438.089Z" fill="white" stroke="#263238" stroke-linecap="round" stroke-linejoin="round"/>
<path d="M122.825 473.529H84.9456V479.003H122.825V473.529Z" fill="white" stroke="#263238" stroke-linecap="round" stroke-linejoin="round"/>
<path d="M92.1241 436.666V490.686" stroke="#263238" stroke-linecap="round" stroke-linejoin="round"/>
<path d="M105.34 436.666V490.686" stroke="#263238" stroke-linecap="round" stroke-linejoin="round"/>
<path d="M116.945 436.666V490.686" stroke="#263238" stroke-linecap="round" stroke-linejoin="round"/>
<path d="M128.284 423.669H84.9456V429.956H128.284V423.669Z" fill="white" stroke="#263238" stroke-linecap="round" stroke-linejoin="round"/>
<path d="M128.284 490.717H84.9456V497.004H128.284V490.717Z" fill="white" stroke="#263238" stroke-linecap="round" stroke-linejoin="round"/>
<path d="M128.284 362.329V545.926" stroke="#263238" stroke-linecap="round" stroke-linejoin="round"/>
<path d="M78.8301 362.329V545.926H84.9453V369.148H127.533V362.251L78.8301 362.329Z" fill="white" stroke="#263238" stroke-linecap="round" stroke-linejoin="round"/>
<path d="M84.9456 369.148V362.329" stroke="#263238" stroke-linecap="round" stroke-linejoin="round"/>
<path d="M127.955 277.984C123.404 269.21 121.496 262.922 121.496 261.468C121.496 258.59 127.752 256.87 127.752 256.87C137.511 251.709 183.414 259.169 204.074 262.61C215.64 264.626 227.34 265.776 239.076 266.05C239.076 266.05 241.938 263.767 245.332 260.889C248.726 258.011 264.835 239.087 271.154 237.429C277.472 235.771 283.196 239.728 283.196 239.728C283.196 239.728 293.534 245.984 291.798 247.189C290.062 248.393 264.835 270.132 258.517 274.152C252.198 278.171 239.014 276.451 227.534 278.75C217.65 280.72 177.612 283.16 168.431 283.911C161.536 285.546 154.3 284.944 147.771 282.191" fill="white"/>
<mask id="mask0_297_997" style="mask-type:luminance" maskUnits="userSpaceOnUse" x="121" y="237" width="171" height="48">
<path d="M127.955 277.984C123.403 269.21 121.495 262.922 121.495 261.468C121.495 258.59 127.751 256.87 127.751 256.87C137.511 251.709 183.414 259.169 204.074 262.61C215.639 264.626 227.339 265.776 239.076 266.05C239.076 266.05 241.938 263.767 245.332 260.889C248.726 258.011 264.835 239.087 271.153 237.429C277.472 235.771 283.196 239.728 283.196 239.728C283.196 239.728 293.534 245.984 291.798 247.189C290.062 248.393 264.835 270.132 258.516 274.152C252.198 278.171 239.013 276.451 227.534 278.75C217.649 280.72 177.611 283.16 168.431 283.911C161.536 285.546 154.3 284.944 147.77 282.191" fill="white"/>
</mask>
<g mask="url(#mask0_297_997)">
<path d="M283.306 239.666C283.306 239.666 277.566 235.646 271.263 237.367C264.96 239.087 248.883 258.027 245.442 260.826C242.001 263.626 239.186 265.988 239.186 265.988C227.449 265.713 215.749 264.563 204.184 262.547C183.524 259.106 137.62 251.599 127.861 256.807C127.861 256.807 121.605 258.527 121.605 261.405C121.823 263.014 122.238 264.59 122.841 266.097L123.701 266.41C123.701 266.41 135.165 265.206 159.907 265.8C184.65 266.394 241.876 269.788 245.551 271.118C247.115 271.712 258.204 269.209 270.497 264.862C279.881 257.214 290.907 247.658 292.017 246.985C293.644 245.969 283.306 239.666 283.306 239.666Z" fill="#92E3A9"/>
<path opacity="0.5" d="M283.306 239.666C283.306 239.666 277.566 235.646 271.263 237.367C264.96 239.087 248.883 258.027 245.442 260.826C242.001 263.626 239.186 265.988 239.186 265.988C227.449 265.713 215.749 264.563 204.184 262.547C183.524 259.106 137.62 251.599 127.861 256.807C127.861 256.807 121.605 258.527 121.605 261.405C121.823 263.014 122.238 264.59 122.841 266.097L123.701 266.41C123.701 266.41 135.165 265.206 159.907 265.8C184.65 266.394 241.876 269.788 245.551 271.118C247.115 271.712 258.204 269.209 270.497 264.862C279.881 257.214 290.907 247.658 292.017 246.985C293.644 245.969 283.306 239.666 283.306 239.666Z" fill="white"/>
</g>
<path d="M127.955 277.984C123.404 269.21 121.496 262.922 121.496 261.468C121.496 258.59 127.752 256.87 127.752 256.87C137.511 251.709 183.414 259.169 204.074 262.61C215.64 264.626 227.34 265.776 239.076 266.05C239.076 266.05 241.938 263.767 245.332 260.889C248.726 258.011 264.835 239.087 271.154 237.429C277.472 235.771 283.196 239.728 283.196 239.728C283.196 239.728 293.534 245.984 291.798 247.189C290.062 248.393 264.835 270.132 258.517 274.152C252.198 278.171 239.014 276.451 227.534 278.75C217.65 280.72 177.612 283.16 168.431 283.911C161.536 285.546 154.3 284.944 147.771 282.191" stroke="#263238" stroke-linecap="round" stroke-linejoin="round"/>
<path d="M354.592 329.001C355.63 327.03 357.187 325.381 359.095 324.232C361.003 323.082 363.188 322.476 365.415 322.479H469.733C469.733 322.479 477.272 322.479 475.02 336.805C472.767 351.131 441.832 438.605 434.356 465.052C426.88 491.499 425.3 547.24 425.3 547.24H300.181C300.181 547.24 310.097 413.941 354.592 329.001Z" fill="white"/>
<mask id="mask1_297_997" style="mask-type:luminance" maskUnits="userSpaceOnUse" x="300" y="322" width="176" height="226">
<path d="M354.592 329.001C355.63 327.03 357.187 325.381 359.095 324.232C361.002 323.082 363.188 322.476 365.415 322.479H469.733C469.733 322.479 477.271 322.479 475.019 336.805C472.767 351.131 441.832 438.605 434.356 465.052C426.88 491.499 425.3 547.24 425.3 547.24H300.181C300.181 547.24 310.097 413.941 354.592 329.001Z" fill="white"/>
</mask>
<g mask="url(#mask1_297_997)">
<path opacity="0.16" d="M401.575 322.479H365.415C363.188 322.476 361.003 323.082 359.095 324.232C357.188 325.381 355.631 327.03 354.593 329.001C310.097 413.941 300.072 547.193 300.072 547.193H356.188L370.029 494.627L427.74 506.529C428.147 502.119 428.616 497.63 429.164 493.204L427.897 479.128C427.897 479.128 416.073 466.694 412.351 463.582C408.628 460.47 411.1 454.855 410.474 430.598C409.848 406.34 388.078 388.902 379.976 373.966C371.875 359.029 384.34 349.692 395.538 334.756C399.526 329.361 401.153 325.388 401.575 322.479Z" fill="black"/>
</g>
<path d="M354.592 329.001C355.63 327.03 357.187 325.381 359.095 324.232C361.003 323.082 363.188 322.476 365.415 322.479H469.733C469.733 322.479 477.272 322.479 475.02 336.805C472.767 351.131 441.832 438.605 434.356 465.052C426.88 491.499 425.3 547.24 425.3 547.24H300.181C300.181 547.24 310.097 413.941 354.592 329.001Z" stroke="#263238" stroke-linecap="round" stroke-linejoin="round"/>
<path d="M451.638 347.362C441.097 371.964 418.794 469.353 415.166 547.193H425.238C425.238 547.193 426.802 491.39 434.293 465.005C441.785 438.621 472.752 351.131 474.957 336.758C477.162 322.385 469.671 322.432 469.671 322.432C469.671 322.432 460.099 327.64 451.638 347.362Z" fill="#263238" stroke="#263238" stroke-linecap="round" stroke-linejoin="round"/>
<path d="M268.385 298.19C268.385 298.19 251.744 288.431 245.441 271.227C239.139 254.023 294.785 226.466 318.949 224.745C343.112 223.025 349.931 229.328 364.305 254.008C378.678 278.687 388.406 312.532 380.945 329.173C373.485 345.814 360.864 349.833 369.997 363.581C379.131 377.328 405 416.365 403.279 434.726C401.559 453.088 383.776 469.134 357.923 470.886C332.071 472.638 297.663 457.107 268.979 431.786C240.296 406.465 247.74 369.227 258.032 357.184C268.323 345.141 283.853 340.543 284.995 328.5C286.136 316.458 268.385 298.19 268.385 298.19Z" fill="#263238" stroke="#263238" stroke-linecap="round" stroke-linejoin="round"/>
<path d="M339.312 270.961C348.148 287.414 359.206 309.451 362.662 322.76C368.699 346.064 337.638 360.734 346.256 371.948" stroke="white" stroke-linecap="round" stroke-linejoin="round"/>
<path d="M327.269 249.409C327.269 249.409 330.71 255.274 335.465 263.908" stroke="white" stroke-linecap="round" stroke-linejoin="round"/>
<path d="M373.626 290.808C374.645 293.892 375.307 297.082 375.597 300.317" stroke="white" stroke-linecap="round" stroke-linejoin="round"/>
<path d="M333.244 240.854C333.244 240.854 360.426 260.936 371.28 284.975" stroke="white" stroke-linecap="round" stroke-linejoin="round"/>
<path d="M295.52 255.916C276.111 261.358 248.194 270.195 250.462 275.293" stroke="white" stroke-linecap="round" stroke-linejoin="round"/>
<path d="M313.459 251.13C313.459 251.13 309.314 252.162 303.137 253.82" stroke="white" stroke-linecap="round" stroke-linejoin="round"/>
<path d="M289.452 240.995C300.569 237.491 312.214 235.956 323.859 236.46" stroke="white" stroke-linecap="round" stroke-linejoin="round"/>
<path d="M281.539 244.233C283.296 243.317 285.115 242.523 286.981 241.855" stroke="white" stroke-linecap="round" stroke-linejoin="round"/>
<path d="M127.954 277.984C125.32 273.16 123.222 268.062 121.699 262.782C123.215 268.065 125.313 273.163 127.954 277.984ZM121.526 261.89C121.526 261.984 121.526 262.093 121.526 262.234C121.558 262.093 121.542 261.984 121.526 261.89ZM127.954 277.968C133.804 289.047 141.081 299.311 149.6 308.497C170.26 330.878 229.942 389.418 235.619 393.437C241.297 397.457 239.639 408.921 235.619 420.4C231.6 431.88 216.68 448.552 217.258 466.882C217.837 485.212 223.514 513.364 222.998 519.104C222.482 524.844 208.125 544.362 208.125 544.362H356.172C356.172 544.362 337.717 520.902 337.717 512.879C337.717 504.856 363.053 402.055 364.195 394.595C365.337 387.134 360.754 381.973 351.574 381.394C342.393 380.816 307.391 373.356 305.671 367.616C303.95 361.876 314.851 340.074 314.851 340.074L280.443 341.794C280.443 341.794 278.723 356.715 276.424 359.592C274.125 362.47 270.684 356.715 262.645 352.711C254.606 348.707 239.185 345.251 233.383 340.653C227.581 336.054 172.559 284.349 172.559 284.349" fill="white"/>
<mask id="mask2_297_997" style="mask-type:luminance" maskUnits="userSpaceOnUse" x="121" y="261" width="244" height="284">
<path d="M127.954 277.984C125.32 273.16 123.222 268.062 121.698 262.782C123.215 268.065 125.313 273.163 127.954 277.984ZM121.526 261.89C121.526 261.984 121.526 262.093 121.526 262.234C121.557 262.093 121.542 261.984 121.526 261.89ZM127.954 277.968C133.803 289.047 141.081 299.311 149.6 308.497C170.26 330.878 229.942 389.418 235.619 393.437C241.296 397.457 239.639 408.921 235.619 420.4C231.6 431.88 216.679 448.552 217.258 466.882C217.837 485.212 223.514 513.364 222.998 519.104C222.482 524.844 208.124 544.362 208.124 544.362H356.171C356.171 544.362 337.716 520.902 337.716 512.879C337.716 504.856 363.053 402.055 364.195 394.595C365.336 387.134 360.754 381.973 351.573 381.394C342.393 380.816 307.391 373.356 305.67 367.616C303.95 361.876 314.851 340.074 314.851 340.074L280.443 341.794C280.443 341.794 278.723 356.715 276.424 359.592C274.124 362.47 270.684 356.715 262.645 352.711C254.606 348.707 239.185 345.251 233.383 340.653C227.58 336.054 172.559 284.349 172.559 284.349" fill="white"/>
</mask>
<g mask="url(#mask2_297_997)">
<path d="M242.173 345.079C245.035 350.083 247.898 354.603 247.898 354.603C247.898 354.603 257.547 360.03 259.956 360.03C262.364 360.03 276.847 367.85 276.847 367.85C276.847 367.85 288.921 364.832 284.667 354.572C283.325 351.945 281.631 349.515 279.631 347.346C278.911 351.898 277.754 357.856 276.393 359.561C274.094 362.423 270.654 356.683 262.615 352.68C257.407 350.083 248.977 347.706 242.173 345.079Z" fill="#92E3A9"/>
<path d="M212.707 321.853C194.987 305.447 172.56 284.411 172.56 284.411L159.516 282.535L157.952 283.41C157.952 283.41 194.768 315.988 202.604 319.617C205.774 321.074 209.219 321.836 212.707 321.853Z" fill="#92E3A9"/>
<path d="M231.272 338.838L229.864 337.587C230.583 338.776 230.99 339.526 230.99 339.526L231.272 338.838Z" fill="#92E3A9"/>
<g opacity="0.5">
<path d="M242.174 345.079C245.036 350.083 247.898 354.603 247.898 354.603C247.898 354.603 257.548 360.03 259.956 360.03C262.365 360.03 276.847 367.85 276.847 367.85C276.847 367.85 288.921 364.832 284.667 354.572C283.325 351.945 281.631 349.515 279.631 347.346C278.912 351.898 277.754 357.856 276.394 359.561C274.095 362.423 270.654 356.683 262.615 352.68C257.407 350.083 248.977 347.706 242.174 345.079Z" fill="white"/>
<path d="M212.708 321.853C194.988 305.447 172.561 284.411 172.561 284.411L159.517 282.535L157.953 283.41C157.953 283.41 194.769 315.988 202.605 319.617C205.775 321.074 209.219 321.836 212.708 321.853Z" fill="white"/>
<path d="M231.273 338.838L229.865 337.587C230.585 338.776 230.991 339.526 230.991 339.526L231.273 338.838Z" fill="white"/>
</g>
</g>
<path d="M121.495 261.468C121.488 261.577 121.488 261.687 121.495 261.796M121.699 262.782C123.222 268.062 125.32 273.16 127.954 277.984C125.313 273.163 123.215 268.065 121.699 262.782ZM121.699 262.782C121.655 262.633 121.624 262.481 121.605 262.328M127.954 277.968C133.804 289.047 141.081 299.311 149.6 308.497C170.26 330.878 229.942 389.418 235.619 393.437C241.297 397.457 239.639 408.921 235.619 420.4C231.6 431.88 216.68 448.552 217.258 466.882C217.837 485.212 223.514 513.364 222.998 519.104C222.482 524.844 208.125 544.362 208.125 544.362H356.172C356.172 544.362 337.717 520.902 337.717 512.879C337.717 504.856 363.053 402.055 364.195 394.595C365.337 387.134 360.754 381.973 351.574 381.394C342.393 380.816 307.391 373.356 305.671 367.616C303.95 361.876 314.851 340.074 314.851 340.074L280.443 341.794C280.443 341.794 278.723 356.715 276.424 359.592C274.125 362.47 270.684 356.715 262.645 352.711C254.606 348.707 239.185 345.251 233.383 340.653C227.581 336.054 172.559 284.349 172.559 284.349M121.526 261.89C121.526 261.984 121.526 262.093 121.526 262.234C121.558 262.093 121.542 261.984 121.526 261.89Z" stroke="#263238" stroke-linecap="round" stroke-linejoin="round"/>
<path d="M172.56 284.412C172.56 284.412 154.23 284.756 144.001 276.326" stroke="#263238" stroke-linecap="round" stroke-linejoin="round"/>
<path d="M305.686 367.616C303.966 361.892 314.867 340.074 314.867 340.074L280.459 341.794C280.459 341.794 278.739 356.715 276.44 359.593C274.141 362.47 270.7 356.715 262.661 352.711C262.051 352.398 261.378 352.101 260.69 351.804L258.61 384.507C258.61 384.507 261.629 416.178 297.819 410.156C312.474 407.716 328.114 394.642 341.611 379.94C327.723 377.391 307 372.011 305.686 367.616Z" fill="white"/>
<mask id="mask3_297_997" style="mask-type:luminance" maskUnits="userSpaceOnUse" x="258" y="340" width="84" height="71">
<path d="M305.687 367.616C303.966 361.892 314.867 340.074 314.867 340.074L280.46 341.794C280.46 341.794 278.739 356.715 276.44 359.593C274.141 362.47 270.7 356.715 262.661 352.711C262.051 352.398 261.379 352.101 260.691 351.804L258.611 384.507C258.611 384.507 261.629 416.178 297.82 410.156C312.475 407.716 328.114 394.642 341.612 379.94C327.723 377.391 307.001 372.011 305.687 367.616Z" fill="white"/>
</mask>
<g mask="url(#mask3_297_997)">
<path d="M304.717 344.406C304.717 344.406 302.636 356.074 300.963 368.977C299.29 381.879 298.054 391.482 298.054 391.482L305.686 367.616L314.288 342.326C314.288 342.326 305.968 342.326 304.717 344.406Z" fill="#92E3A9"/>
<path opacity="0.5" d="M304.717 344.406C304.717 344.406 302.636 356.074 300.963 368.977C299.29 381.879 298.054 391.482 298.054 391.482L305.686 367.616L314.288 342.326C314.288 342.326 305.968 342.326 304.717 344.406Z" fill="white"/>
</g>
<path d="M305.686 367.616C303.966 361.892 314.867 340.074 314.867 340.074L280.459 341.794C280.459 341.794 278.739 356.715 276.44 359.593C274.141 362.47 270.7 356.715 262.661 352.711C262.051 352.398 261.378 352.101 260.69 351.804L258.61 384.507C258.61 384.507 261.629 416.178 297.819 410.156C312.474 407.716 328.114 394.642 341.611 379.94C327.723 377.391 307 372.011 305.686 367.616Z" stroke="#263238" stroke-linecap="round" stroke-linejoin="round"/>
<path d="M276.424 359.592C274.125 362.454 270.684 356.715 262.645 352.711C257.578 350.161 249.508 347.847 242.83 345.344C240.937 340.856 238.435 335.006 236.824 331.472C233.962 325.216 229.364 329.173 229.364 329.173C226.965 326.444 225.026 323.344 223.624 319.992C220.762 313.736 216.164 314.252 209.861 313.111C203.558 311.969 190.342 299.911 190.342 299.911C190.342 299.911 184.164 295.219 181.615 292.888C178.644 298.738 171.527 309.029 156.138 315.457C180.677 341.09 230.458 389.793 235.682 393.453C241.422 397.457 239.702 408.936 235.682 420.416C231.663 431.896 216.742 448.568 217.321 466.898C217.9 485.228 223.577 513.379 223.061 519.119C222.545 524.233 211.096 540.264 208.61 543.705L214.443 544.362H244.816C244.644 528.972 244.659 466.163 255.185 441.139C267.243 412.377 276.424 359.592 276.424 359.592Z" fill="#92E3A9"/>
<mask id="mask4_297_997" style="mask-type:luminance" maskUnits="userSpaceOnUse" x="156" y="292" width="121" height="253">
<path d="M276.424 359.592C274.125 362.454 270.684 356.715 262.646 352.711C257.578 350.161 249.508 347.847 242.83 345.344C240.937 340.856 238.435 335.006 236.824 331.472C233.962 325.216 229.364 329.173 229.364 329.173C226.965 326.444 225.026 323.344 223.624 319.992C220.762 313.736 216.164 314.252 209.861 313.111C203.558 311.969 190.342 299.911 190.342 299.911C190.342 299.911 184.165 295.219 181.615 292.888C178.644 298.738 171.528 309.029 156.138 315.457C180.677 341.09 230.459 389.793 235.682 393.453C241.422 397.457 239.702 408.936 235.682 420.416C231.663 431.896 216.743 448.568 217.321 466.898C217.9 485.228 223.577 513.379 223.061 519.119C222.545 524.233 211.097 540.264 208.61 543.705L214.443 544.362H244.816C244.644 528.972 244.66 466.163 255.185 441.139C267.244 412.377 276.424 359.592 276.424 359.592Z" fill="white"/>
</mask>
<g mask="url(#mask4_297_997)">
<path opacity="0.16" d="M262.646 352.711C257.578 350.161 249.508 347.847 242.83 345.344C240.937 340.856 238.435 335.006 236.824 331.472C233.962 325.216 229.364 329.173 229.364 329.173C226.965 326.444 225.026 323.344 223.624 319.992C220.762 313.736 216.164 314.252 209.861 313.111C203.558 311.969 190.342 299.911 190.342 299.911C190.342 299.911 184.165 295.219 181.615 292.888C180.343 295.372 178.829 297.724 177.095 299.911C187.355 308.591 198.678 317.787 202.635 319.617C210.455 323.23 212.285 320.211 218.275 323.84C224.265 327.468 230.943 339.479 230.943 339.479C230.943 339.479 234.572 329.814 237.59 336.461C240.609 343.108 247.85 354.556 247.85 354.556C247.85 354.556 257.5 359.983 259.909 359.983C261.801 359.983 271.075 364.8 275.017 366.881C275.893 362.298 276.377 359.545 276.377 359.545C274.125 362.454 270.684 356.715 262.646 352.711Z" fill="black"/>
</g>
<path d="M276.424 359.592C274.125 362.454 270.684 356.715 262.645 352.711C257.578 350.161 249.508 347.847 242.83 345.344C240.937 340.856 238.435 335.006 236.824 331.472C233.962 325.216 229.364 329.173 229.364 329.173C226.965 326.444 225.026 323.344 223.624 319.992C220.762 313.736 216.164 314.252 209.861 313.111C203.558 311.969 190.342 299.911 190.342 299.911C190.342 299.911 184.164 295.219 181.615 292.888C178.644 298.738 171.527 309.029 156.138 315.457C180.677 341.09 230.458 389.793 235.682 393.453C241.422 397.457 239.702 408.936 235.682 420.416C231.663 431.896 216.742 448.568 217.321 466.898C217.9 485.228 223.577 513.379 223.061 519.119C222.545 524.233 211.096 540.264 208.61 543.705L214.443 544.362H244.816C244.644 528.972 244.659 466.163 255.185 441.139C267.243 412.377 276.424 359.592 276.424 359.592Z" stroke="#263238" stroke-linecap="round" stroke-linejoin="round"/>
<path d="M276.831 357.591C276.831 357.591 269.699 355.401 265.304 359.248C260.91 363.096 254.356 382.833 250.493 404.244C248.112 416.709 249.755 429.607 255.185 441.076C255.185 441.076 264.21 417.413 266.947 405.887C269.683 394.36 276.831 357.591 276.831 357.591Z" fill="#92E3A9"/>
<mask id="mask5_297_997" style="mask-type:luminance" maskUnits="userSpaceOnUse" x="249" y="356" width="28" height="86">
<path d="M276.831 357.591C276.831 357.591 269.699 355.401 265.304 359.248C260.91 363.096 254.356 382.833 250.493 404.244C248.112 416.709 249.755 429.607 255.185 441.076C255.185 441.076 264.21 417.413 266.947 405.887C269.683 394.36 276.831 357.591 276.831 357.591Z" fill="white"/>
</mask>
<g mask="url(#mask5_297_997)">
<path opacity="0.16" d="M263.146 361.078C263.146 361.078 268.307 359.827 270.434 360.546C272.225 361.315 273.899 362.331 275.408 363.565L276.831 357.591C274.696 356.5 272.274 356.101 269.902 356.449C266.352 357.168 263.146 361.078 263.146 361.078Z" fill="black"/>
</g>
<path d="M276.831 357.591C276.831 357.591 269.699 355.401 265.304 359.248C260.91 363.096 254.356 382.833 250.493 404.244C248.112 416.709 249.755 429.607 255.185 441.076C255.185 441.076 264.21 417.413 266.947 405.887C269.683 394.36 276.831 357.591 276.831 357.591Z" stroke="#263238" stroke-linecap="round" stroke-linejoin="round"/>
<path d="M228.801 359.467L237.981 396.768L217.321 349.708" stroke="#263238" stroke-linecap="round" stroke-linejoin="round"/>
<path d="M289.28 544.362H356.188C356.188 544.362 337.733 520.902 337.733 512.879C337.733 504.856 363.069 402.055 364.211 394.595C365.353 387.134 360.77 381.973 351.59 381.394C342.409 380.816 307.407 373.356 305.687 367.616C305.687 367.616 292.486 414.098 287.904 445.659C283.963 472.731 288.045 528.91 289.28 544.362Z" fill="#92E3A9"/>
<mask id="mask6_297_997" style="mask-type:luminance" maskUnits="userSpaceOnUse" x="286" y="367" width="79" height="178">
<path d="M289.28 544.362H356.187C356.187 544.362 337.732 520.902 337.732 512.879C337.732 504.856 363.069 402.055 364.21 394.595C365.352 387.134 360.77 381.973 351.589 381.394C342.408 380.816 307.406 373.356 305.686 367.616C305.686 367.616 292.486 414.098 287.903 445.659C283.962 472.731 288.044 528.91 289.28 544.362Z" fill="white"/>
</mask>
<g mask="url(#mask6_297_997)">
<path opacity="0.16" d="M351.589 381.395C344.066 380.925 319.214 375.827 309.533 370.853L313.052 378.986C319.428 382.369 326.285 384.753 333.384 386.055C345.035 388.135 355.874 387.729 362.959 398.145L363.303 398.661C363.741 396.659 364.038 395.251 364.132 394.595C365.367 387.134 360.769 381.973 351.589 381.395Z" fill="black"/>
</g>
<path d="M289.28 544.362H356.188C356.188 544.362 337.733 520.902 337.733 512.879C337.733 504.856 363.069 402.055 364.211 394.595C365.353 387.134 360.77 381.973 351.59 381.394C342.409 380.816 307.407 373.356 305.687 367.616C305.687 367.616 292.486 414.098 287.904 445.659C283.963 472.731 288.045 528.91 289.28 544.362Z" stroke="#263238" stroke-linecap="round" stroke-linejoin="round"/>
<path d="M305.687 367.616C305.687 367.616 287.982 423.919 287.904 445.659C287.904 445.659 313.053 415.208 316.337 393.813C319.622 372.417 305.687 367.616 305.687 367.616Z" fill="#92E3A9"/>
<mask id="mask7_297_997" style="mask-type:luminance" maskUnits="userSpaceOnUse" x="287" y="367" width="30" height="79">
<path d="M305.686 367.616C305.686 367.616 287.982 423.919 287.904 445.659C287.904 445.659 313.053 415.208 316.337 393.813C319.621 372.417 305.686 367.616 305.686 367.616Z" fill="white"/>
</mask>
<g mask="url(#mask7_297_997)">
<path opacity="0.16" d="M302.637 374.81C305.297 374.721 307.939 375.281 310.334 376.442C312.73 377.603 314.806 379.329 316.384 381.473C316.384 381.473 312.912 371.26 305.687 367.616L302.637 374.81Z" fill="black"/>
</g>
<path d="M305.687 367.616C305.687 367.616 287.982 423.919 287.904 445.659C287.904 445.659 313.053 415.208 316.337 393.813C319.622 372.417 305.687 367.616 305.687 367.616Z" stroke="#263238" stroke-linecap="round" stroke-linejoin="round"/>
<path d="M494.695 533.774C494.695 533.774 507.66 534.306 516.153 535.526C521.816 536.293 527.518 536.748 533.231 536.886C533.231 536.886 528.539 527.409 523.535 524.734C518.53 522.06 509.459 517.274 501.858 518.337C494.257 519.401 483.387 527.064 484.294 529.504C485.201 531.944 489.252 533.039 494.695 533.774Z" fill="white"/>
<mask id="mask8_297_997" style="mask-type:luminance" maskUnits="userSpaceOnUse" x="484" y="518" width="50" height="19">
<path d="M494.694 533.774C494.694 533.774 507.66 534.306 516.152 535.526C521.816 536.293 527.517 536.748 533.231 536.886C533.231 536.886 528.539 527.409 523.534 524.734C518.53 522.06 509.458 517.274 501.858 518.337C494.257 519.401 483.387 527.064 484.294 529.504C485.201 531.944 489.252 533.039 494.694 533.774Z" fill="white"/>
</mask>
<g mask="url(#mask8_297_997)">
<path d="M494.694 533.774C494.694 533.774 507.66 534.306 516.152 535.526C521.816 536.293 527.517 536.748 533.231 536.886C533.231 536.886 528.539 527.409 523.534 524.734C518.53 522.06 509.458 517.274 501.858 518.337C494.257 519.401 483.387 527.064 484.294 529.504C485.201 531.944 489.252 533.039 494.694 533.774Z" fill="#92E3A9"/>
<path opacity="0.5" d="M494.694 533.774C494.694 533.774 507.66 534.306 516.152 535.526C521.816 536.293 527.517 536.748 533.231 536.886C533.231 536.886 528.539 527.409 523.534 524.734C518.53 522.06 509.458 517.274 501.858 518.337C494.257 519.401 483.387 527.064 484.294 529.504C485.201 531.944 489.252 533.039 494.694 533.774Z" fill="white"/>
</g>
<path d="M494.695 533.774C494.695 533.774 507.66 534.306 516.153 535.526C521.816 536.293 527.518 536.748 533.231 536.886C533.231 536.886 528.539 527.409 523.535 524.734C518.53 522.06 509.459 517.274 501.858 518.337C494.257 519.401 483.387 527.064 484.294 529.504C485.201 531.944 489.252 533.039 494.695 533.774Z" stroke="#263238" stroke-linecap="round" stroke-linejoin="round"/>
<path d="M516.23 529.895C516.23 529.895 526.506 524.562 529.071 524.64C531.636 524.718 548.683 536.245 547.839 538.091C547.265 538.946 546.437 539.6 545.472 539.959C544.506 540.319 543.452 540.365 542.459 540.092C540.566 539.201 529.086 534.321 529.086 534.321L521.579 536.089L516.23 529.895Z" fill="white"/>
<mask id="mask9_297_997" style="mask-type:luminance" maskUnits="userSpaceOnUse" x="516" y="524" width="32" height="17">
<path d="M516.231 529.895C516.231 529.895 526.506 524.562 529.071 524.64C531.636 524.718 548.683 536.245 547.839 538.091C547.265 538.946 546.437 539.6 545.472 539.959C544.506 540.319 543.452 540.365 542.459 540.092C540.566 539.201 529.087 534.321 529.087 534.321L521.58 536.089L516.231 529.895Z" fill="white"/>
</mask>
<g mask="url(#mask9_297_997)">
<path d="M516.231 529.895C516.231 529.895 526.506 524.562 529.071 524.64C531.636 524.718 548.683 536.245 547.839 538.091C546.994 539.936 542.959 541.437 542.459 540.092C541.958 538.747 529.087 534.321 529.087 534.321L521.58 536.089L516.231 529.895Z" fill="#92E3A9"/>
<path opacity="0.5" d="M516.231 529.895C516.231 529.895 526.506 524.562 529.071 524.64C531.636 524.718 548.683 536.245 547.839 538.091C546.994 539.936 542.959 541.437 542.459 540.092C541.958 538.747 529.087 534.321 529.087 534.321L521.58 536.089L516.231 529.895Z" fill="white"/>
</g>
<path d="M516.23 529.895C516.23 529.895 526.506 524.562 529.071 524.64C531.636 524.718 548.683 536.245 547.839 538.091C547.265 538.946 546.437 539.6 545.472 539.959C544.506 540.319 543.452 540.365 542.459 540.092C540.566 539.201 529.086 534.321 529.086 534.321L521.579 536.089L516.23 529.895Z" stroke="#263238" stroke-linecap="round" stroke-linejoin="round"/>
<path d="M508.895 521.121C508.895 521.121 522.596 520.683 525.317 522.06C528.038 523.436 540.331 544.518 538.486 546.051C536.64 547.584 531.542 547.13 531.698 545.426C531.855 543.721 520.375 532.429 520.375 532.429L511.444 530.474L508.895 521.121Z" fill="white"/>
<mask id="mask10_297_997" style="mask-type:luminance" maskUnits="userSpaceOnUse" x="508" y="521" width="31" height="26">
<path d="M508.895 521.121C508.895 521.121 522.595 520.683 525.317 522.06C528.038 523.436 540.331 544.518 538.486 546.051C536.64 547.584 531.541 547.13 531.698 545.426C531.854 543.721 520.375 532.429 520.375 532.429L511.444 530.474L508.895 521.121Z" fill="white"/>
</mask>
<g mask="url(#mask10_297_997)">
<path d="M508.895 521.121C508.895 521.121 522.595 520.683 525.317 522.06C528.038 523.436 540.331 544.518 538.486 546.051C536.64 547.584 531.541 547.13 531.698 545.426C531.854 543.721 520.375 532.429 520.375 532.429L511.444 530.474L508.895 521.121Z" fill="#92E3A9"/>
<path opacity="0.5" d="M508.895 521.121C508.895 521.121 522.595 520.683 525.317 522.06C528.038 523.436 540.331 544.518 538.486 546.051C536.64 547.584 531.541 547.13 531.698 545.426C531.854 543.721 520.375 532.429 520.375 532.429L511.444 530.474L508.895 521.121Z" fill="white"/>
</g>
<path d="M508.895 521.121C508.895 521.121 522.596 520.683 525.317 522.06C528.038 523.436 540.331 544.518 538.486 546.051C536.64 547.584 531.542 547.13 531.698 545.426C531.855 543.721 520.375 532.429 520.375 532.429L511.444 530.474L508.895 521.121Z" stroke="#263238" stroke-linecap="round" stroke-linejoin="round"/>
<path d="M500.779 518.29C500.779 518.29 514.651 517.837 517.404 519.244C520.156 520.652 532.606 541.969 530.729 543.533C528.852 545.097 523.722 544.612 523.879 542.892C524.035 541.171 512.415 529.739 512.415 529.739L503.375 527.752L500.779 518.29Z" fill="white"/>
<mask id="mask11_297_997" style="mask-type:luminance" maskUnits="userSpaceOnUse" x="500" y="518" width="31" height="27">
<path d="M500.778 518.29C500.778 518.29 514.65 517.837 517.403 519.244C520.156 520.652 532.605 541.969 530.728 543.533C528.851 545.097 523.722 544.612 523.878 542.892C524.034 541.171 512.414 529.739 512.414 529.739L503.374 527.752L500.778 518.29Z" fill="white"/>
</mask>
<g mask="url(#mask11_297_997)">
<path d="M500.778 518.29C500.778 518.29 514.65 517.837 517.403 519.244C520.156 520.652 532.605 541.969 530.728 543.533C528.851 545.097 523.722 544.612 523.878 542.892C524.034 541.171 512.414 529.739 512.414 529.739L503.374 527.752L500.778 518.29Z" fill="#92E3A9"/>
<path opacity="0.5" d="M500.778 518.29C500.778 518.29 514.65 517.837 517.403 519.244C520.156 520.652 532.605 541.969 530.728 543.533C528.851 545.097 523.722 544.612 523.878 542.892C524.034 541.171 512.414 529.739 512.414 529.739L503.374 527.752L500.778 518.29Z" fill="white"/>
</g>
<path d="M500.779 518.29C500.779 518.29 514.651 517.837 517.404 519.244C520.156 520.652 532.606 541.969 530.729 543.533C528.852 545.097 523.722 544.612 523.879 542.892C524.035 541.171 512.415 529.739 512.415 529.739L503.375 527.752L500.779 518.29Z" stroke="#263238" stroke-linecap="round" stroke-linejoin="round"/>
<path d="M343.05 438.808C353.091 454.276 373.251 493.47 379.132 497.88C388.312 504.762 449.683 521.465 455.595 526.032C461.507 530.599 461.1 535.181 466.699 536.855C472.298 538.528 493.287 543.33 501.295 544.081C509.303 544.831 505.721 539.873 505.721 539.873L492.067 530.489L503.969 527.549C503.969 527.549 515.903 541.907 518.139 542.689C520.376 543.471 524.317 542.689 524.067 540.921C523.629 538.09 510.898 514.928 506.378 513.942C501.858 512.957 474.426 516.758 474.426 516.758C474.426 516.758 416.886 477.955 415.854 476.579C415.854 476.579 412.413 466.819 409.598 462.8C406.783 458.781 405 459.938 405 459.938C405 459.938 406.157 454.761 404.437 453.041L395.256 443.86L394.928 444.298C393.364 441.17 391.8 437.604 390.08 433.538C385.278 422.23 368.278 390.497 365.416 385.914C363.273 382.489 345.318 380.034 336.216 379.001" fill="#92E3A9"/>
<mask id="mask12_297_997" style="mask-type:luminance" maskUnits="userSpaceOnUse" x="336" y="379" width="189" height="166">
<path d="M343.051 438.808C353.092 454.276 373.252 493.47 379.132 497.88C388.313 504.762 449.684 521.465 455.596 526.032C461.508 530.599 461.101 535.181 466.7 536.855C472.299 538.528 493.288 543.33 501.296 544.081C509.303 544.831 505.722 539.873 505.722 539.873L492.068 530.489L503.97 527.549C503.97 527.549 515.903 541.907 518.14 542.689C520.376 543.471 524.318 542.689 524.067 540.921C523.629 538.09 510.898 514.928 506.379 513.942C501.859 512.957 474.426 516.758 474.426 516.758C474.426 516.758 416.887 477.955 415.855 476.579C415.855 476.579 412.414 466.819 409.599 462.8C406.784 458.781 405.001 459.938 405.001 459.938C405.001 459.938 406.158 454.761 404.438 453.041L395.257 443.86L394.929 444.298C393.365 441.17 391.801 437.604 390.08 433.538C385.279 422.23 368.278 390.497 365.416 385.914C363.274 382.489 345.319 380.034 336.217 379.001" fill="white"/>
</mask>
<g mask="url(#mask12_297_997)">
<path opacity="0.16" d="M383.026 439.794C390.533 446.456 388.031 446.456 386.357 452.306C384.684 458.155 387.609 450.226 394.693 450.648C401.778 451.07 399.698 460.22 398.854 461.893C398.009 463.566 407.612 465.647 405.939 469.385C404.265 473.122 394.693 478.55 389.282 483.977C383.871 489.404 403.436 475.218 410.099 474.812C412.132 474.671 413.805 474.937 415.213 474.905C413.736 470.721 411.839 466.696 409.551 462.894C406.674 458.875 404.953 460.032 404.953 460.032C404.953 460.032 406.111 454.855 404.39 453.135L395.21 443.954L394.881 444.392C393.317 441.264 391.753 437.698 390.033 433.632C385.231 422.324 368.231 390.591 365.369 386.008C363.226 382.583 345.271 380.128 336.169 379.095L336.998 386.337L337.201 386.493C337.201 386.493 348.446 388.573 352.2 388.995C355.953 389.418 360.536 392.733 360.114 395.251C359.691 397.769 348.869 408.999 352.2 409.843C355.531 410.688 359.285 401.507 363.038 402.759C366.792 404.01 375.472 433.131 383.026 439.794Z" fill="black"/>
</g>
<path d="M343.05 438.808C353.091 454.276 373.251 493.47 379.132 497.88C388.312 504.762 449.683 521.465 455.595 526.032C461.507 530.599 461.1 535.181 466.699 536.855C472.298 538.528 493.287 543.33 501.295 544.081C509.303 544.831 505.721 539.873 505.721 539.873L492.067 530.489L503.969 527.549C503.969 527.549 515.903 541.907 518.139 542.689C520.376 543.471 524.317 542.689 524.067 540.921C523.629 538.09 510.898 514.928 506.378 513.942C501.858 512.957 474.426 516.758 474.426 516.758C474.426 516.758 416.886 477.955 415.854 476.579C415.854 476.579 412.413 466.819 409.598 462.8C406.783 458.781 405 459.938 405 459.938C405 459.938 406.157 454.761 404.437 453.041L395.256 443.86L394.928 444.298C393.364 441.17 391.8 437.604 390.08 433.538C385.278 422.23 368.278 390.497 365.416 385.914C363.273 382.489 345.318 380.034 336.216 379.001" stroke="#263238" stroke-linecap="round" stroke-linejoin="round"/>
<path d="M343.207 417.585C342.784 418.993 342.425 420.4 342.143 421.839" stroke="#263238" stroke-linecap="round" stroke-linejoin="round"/>
<path d="M358.408 391.701C353.494 397.303 349.349 403.536 346.084 410.234" stroke="#263238" stroke-linecap="round" stroke-linejoin="round"/>
<path d="M381.384 480.504C385.607 474.249 392.332 466.319 399.745 464.051" stroke="#263238" stroke-linecap="round" stroke-linejoin="round"/>
<path d="M376.707 488.199C376.707 488.199 377.458 486.729 378.803 484.508" stroke="#263238" stroke-linecap="round" stroke-linejoin="round"/>
<path d="M376.707 478.315C376.707 478.315 384.386 459.109 392.065 454.167C399.745 449.225 395.35 459.109 395.35 459.109" stroke="#263238" stroke-linecap="round" stroke-linejoin="round"/>
<path d="M455.595 526.048C461.522 530.63 461.1 535.197 466.699 536.871C472.298 538.544 493.287 543.346 501.294 544.096C509.302 544.847 505.721 539.889 505.721 539.889L492.067 530.505L503.969 527.565C503.969 527.565 515.902 541.922 518.139 542.704C520.375 543.486 524.629 543.768 524.066 540.937C522.971 535.463 510.897 514.943 506.377 513.958C501.857 512.973 474.425 516.773 474.425 516.773C474.425 516.773 422.016 480.802 416.276 476.907C394.02 479.05 383.432 490.702 378.975 497.693L379.131 497.818C388.312 504.762 449.683 521.465 455.595 526.048Z" fill="white"/>
<mask id="mask13_297_997" style="mask-type:luminance" maskUnits="userSpaceOnUse" x="378" y="476" width="147" height="69">
<path d="M455.596 526.048C461.523 530.63 461.101 535.197 466.7 536.871C472.299 538.544 493.288 543.346 501.295 544.096C509.303 544.847 505.722 539.889 505.722 539.889L492.068 530.505L503.97 527.565C503.97 527.565 515.903 541.922 518.14 542.704C520.376 543.486 524.63 543.768 524.067 540.937C522.972 535.463 510.898 514.943 506.378 513.958C501.858 512.973 474.426 516.773 474.426 516.773C474.426 516.773 422.017 480.802 416.277 476.907C394.021 479.05 383.433 490.702 378.976 497.693L379.132 497.818C388.313 504.762 449.684 521.465 455.596 526.048Z" fill="white"/>
</mask>
<g mask="url(#mask13_297_997)">
<path d="M524.051 540.999C521.204 534.04 510.882 515.006 506.362 514.021C501.842 513.035 474.41 516.836 474.41 516.836C474.41 516.836 422.001 480.864 416.261 476.97C410.419 477.478 404.688 478.864 399.26 481.083C407.534 485.775 462.68 517.055 469.64 518.447C477.022 520.011 501.655 515.96 505.987 518.869C508.74 520.715 516.935 533.711 522.471 542.939C524.051 542.704 524.63 542.407 524.051 540.999Z" fill="#92E3A9"/>
<path opacity="0.5" d="M524.051 540.999C519.609 531.037 510.882 515.006 506.362 514.021C501.842 513.035 474.41 516.836 474.41 516.836C474.41 516.836 422.001 480.864 416.261 476.97C410.419 477.478 404.688 478.864 399.26 481.083C407.534 485.775 462.68 517.055 469.64 518.447C477.022 520.011 501.655 515.96 505.987 518.869C508.74 520.715 516.935 533.711 522.471 542.939C524.051 542.704 524.677 542.391 524.051 540.999Z" fill="white"/>
</g>
<path d="M455.595 526.048C461.522 530.63 461.1 535.197 466.699 536.871C472.298 538.544 493.287 543.346 501.294 544.096C509.302 544.847 505.721 539.889 505.721 539.889L492.067 530.505L503.969 527.565C503.969 527.565 515.902 541.922 518.139 542.704C520.375 543.486 524.629 543.768 524.066 540.937C522.971 535.463 510.897 514.943 506.377 513.958C501.857 512.973 474.425 516.773 474.425 516.773C474.425 516.773 422.016 480.802 416.276 476.907C394.02 479.05 383.432 490.702 378.975 497.693L379.131 497.818C388.312 504.762 449.683 521.465 455.595 526.048Z" stroke="#263238" stroke-linecap="round" stroke-linejoin="round"/>
<path d="M317.369 252.944L270.262 272.603C269.691 280.882 267.641 288.992 264.209 296.548C258.642 308.325 261.895 330.612 267.244 342.639C272.592 354.666 296.162 349.958 304.779 348.457C310.624 347.345 316.348 345.674 321.874 343.468C324.389 344.437 327.111 344.751 329.781 344.379C332.451 344.007 334.983 342.961 337.138 341.341C337.138 341.341 311.927 270.57 317.369 252.944Z" fill="white"/>
<mask id="mask14_297_997" style="mask-type:luminance" maskUnits="userSpaceOnUse" x="261" y="252" width="77" height="99">
<path d="M317.368 252.944L270.261 272.603C269.69 280.882 267.64 288.992 264.208 296.548C258.641 308.325 261.894 330.612 267.243 342.639C272.591 354.666 296.161 349.958 304.778 348.457C310.623 347.345 316.347 345.674 321.873 343.468C324.389 344.437 327.11 344.751 329.78 344.379C332.45 344.007 334.982 342.961 337.137 341.341C337.137 341.341 311.926 270.57 317.368 252.944Z" fill="white"/>
</mask>
<g mask="url(#mask14_297_997)">
<path d="M317.368 252.944L270.261 272.603C269.69 280.882 267.64 288.992 264.208 296.548C258.641 308.325 261.894 330.612 267.243 342.639C268.138 344.573 269.578 346.204 271.387 347.331V346.424C271.387 346.424 262.644 324.762 264.302 312.266C265.96 299.77 273.061 293.498 273.889 285.6C274.718 277.702 274.296 273.948 290.139 268.115C305.983 262.281 312.63 256.87 314.287 262.688C315.945 268.506 322.623 306.855 327.206 316.02C331.788 325.185 331.366 334.788 324.297 338.932C317.152 343.221 309.496 346.595 301.51 348.973L304.841 348.394C310.686 347.283 316.41 345.612 321.935 343.405C324.451 344.375 327.172 344.688 329.843 344.316C332.513 343.944 335.045 342.899 337.2 341.278C337.2 341.278 311.926 270.57 317.368 252.944Z" fill="#92E3A9"/>
<path opacity="0.5" d="M317.368 252.944L270.261 272.603C269.69 280.882 267.64 288.992 264.208 296.548C258.641 308.325 261.894 330.612 267.243 342.639C268.138 344.573 269.578 346.204 271.387 347.331V346.424C271.387 346.424 262.644 324.762 264.302 312.266C265.96 299.77 273.061 293.498 273.889 285.6C274.718 277.702 274.296 273.948 290.139 268.115C305.983 262.281 312.63 256.87 314.287 262.688C315.945 268.506 322.623 306.855 327.206 316.02C331.788 325.185 331.366 334.788 324.297 338.932C317.152 343.221 309.496 346.595 301.51 348.973L304.841 348.394C310.686 347.283 316.41 345.612 321.935 343.405C324.451 344.375 327.172 344.688 329.843 344.316C332.513 343.944 335.045 342.899 337.2 341.278C337.2 341.278 311.926 270.57 317.368 252.944Z" fill="white"/>
</g>
<path d="M317.369 252.944L270.262 272.603C269.691 280.882 267.641 288.992 264.209 296.548C258.642 308.325 261.895 330.612 267.244 342.639C272.592 354.666 296.162 349.958 304.779 348.457C310.624 347.345 316.348 345.674 321.874 343.468C324.389 344.437 327.111 344.751 329.781 344.379C332.451 344.007 334.983 342.961 337.138 341.341C337.138 341.341 311.927 270.57 317.369 252.944Z" stroke="#263238" stroke-linecap="round" stroke-linejoin="round"/>
<path d="M293.565 283.77C293.693 286.54 293.349 289.311 292.549 291.966C291.297 295.094 279.489 307.387 279.849 308.716C280.209 310.045 281.272 314.315 283.368 314.722" stroke="#263238" stroke-linecap="round" stroke-linejoin="round"/>
<path d="M306.656 294.765C308.298 291.481 313.694 294.687 313.616 302.084" stroke="#263238" stroke-linecap="round" stroke-linejoin="round"/>
<path d="M279.912 285.1C279.912 285.1 284.51 283.082 288.623 290.527" stroke="#263238" stroke-linecap="round" stroke-linejoin="round"/>
<path d="M300.118 305.604C305.432 305.871 310.484 307.99 314.398 311.594" stroke="#263238" stroke-width="0.5" stroke-linecap="round" stroke-linejoin="round"/>
<path d="M274.36 295.829C277.107 296.195 279.791 296.937 282.336 298.034" stroke="#263238" stroke-width="0.5" stroke-linecap="round" stroke-linejoin="round"/>
<path d="M293.049 276.826C291.834 276.184 290.487 275.833 289.114 275.8C287.741 275.768 286.379 276.055 285.135 276.638C280.928 278.656 278.347 280.877 278.629 278.296C278.91 275.716 283.853 272.869 285.338 272.494C286.824 272.118 293.471 271.086 293.049 276.826Z" fill="#263238"/>
<path d="M304.841 270.993C309.226 274.54 312.709 279.074 315.007 284.224C318.135 292.044 320.606 283.504 318.135 278.39C315.664 273.276 308.517 267.833 304.841 270.993Z" fill="#263238"/>
<path d="M337.826 354.713C337.826 358.357 335.762 361.313 333.228 361.313C330.695 361.313 328.646 358.357 328.646 354.713C328.646 351.069 330.695 341.794 333.228 341.794C335.762 341.794 337.826 351.069 337.826 354.713Z" fill="#92E3A9" stroke="#263238" stroke-linecap="round" stroke-linejoin="round"/>
<path d="M307.062 293.342C306.883 293.82 306.741 294.311 306.64 294.812C306.187 297.127 305.733 301.959 306.64 302.163C307.547 302.366 309.768 297.846 310.159 295.531C310.247 295.077 310.299 294.617 310.316 294.155C309.248 293.82 308.162 293.549 307.062 293.342Z" fill="#263238"/>
<path d="M280.381 284.646C280.242 285.055 280.132 285.473 280.052 285.897C279.583 288.212 279.599 293.295 280.584 293.483C281.57 293.67 283.18 288.916 283.634 286.601C283.747 286.039 283.81 285.469 283.822 284.896C282.702 284.588 281.533 284.503 280.381 284.646Z" fill="#263238"/>
<path d="M306.656 294.843L308.22 291.934C310.699 292.417 312.946 293.717 314.601 295.625" stroke="#263238" stroke-width="0.75" stroke-linecap="round" stroke-linejoin="round"/>
<path d="M280.381 284.646L281.945 282.816C281.945 282.816 282.618 282.488 286.309 284.161" stroke="#263238" stroke-width="0.75" stroke-linecap="round" stroke-linejoin="round"/>
<path d="M274.453 327.061C274.453 327.061 277.08 322.229 280.599 322.229C284.118 322.229 286.746 330.127 286.746 330.127" stroke="#263238" stroke-linecap="round" stroke-linejoin="round"/>
<path d="M161.205 535.479C157.804 535.31 154.464 534.514 151.352 533.133C150.918 532.972 150.521 532.725 150.186 532.406C149.851 532.088 149.584 531.704 149.401 531.279C149.219 530.854 149.125 530.396 149.125 529.933C149.125 529.471 149.22 529.013 149.402 528.588C149.585 528.163 149.852 527.779 150.188 527.461C150.524 527.143 150.921 526.896 151.355 526.736C151.789 526.576 152.251 526.506 152.713 526.53C153.175 526.554 153.627 526.672 154.042 526.877C157.17 528.206 161.221 529.035 162.3 528.566C164.286 526.345 167.336 512.926 163.395 506.451C162.503 505.012 161.674 504.746 161.127 504.684C158.89 504.371 155.575 506.67 154.402 507.812C154.075 508.12 153.691 508.36 153.272 508.52C152.852 508.68 152.405 508.755 151.956 508.742C151.507 508.729 151.066 508.628 150.656 508.444C150.246 508.26 149.877 507.997 149.569 507.671C149.261 507.344 149.02 506.96 148.861 506.541C148.701 506.121 148.625 505.674 148.639 505.225C148.652 504.777 148.753 504.335 148.937 503.925C149.121 503.516 149.383 503.146 149.71 502.838C150.32 502.244 155.966 497.161 161.987 497.974C163.481 498.192 164.904 498.751 166.146 499.609C167.388 500.466 168.416 501.598 169.15 502.916C174.953 512.378 170.98 530.38 166.523 533.946C164.974 535.042 163.1 535.582 161.205 535.479Z" fill="white"/>
<mask id="mask15_297_997" style="mask-type:luminance" maskUnits="userSpaceOnUse" x="148" y="497" width="25" height="39">
<path d="M161.206 535.479C157.805 535.31 154.465 534.514 151.352 533.133C150.919 532.972 150.522 532.725 150.186 532.406C149.851 532.088 149.584 531.704 149.402 531.279C149.219 530.854 149.125 530.396 149.125 529.933C149.126 529.471 149.22 529.013 149.403 528.588C149.586 528.163 149.853 527.779 150.189 527.461C150.524 527.143 150.921 526.896 151.355 526.736C151.789 526.576 152.251 526.506 152.713 526.53C153.175 526.554 153.628 526.672 154.043 526.877C157.171 528.206 161.221 529.035 162.3 528.566C164.287 526.345 167.336 512.926 163.395 506.451C162.504 505.012 161.675 504.746 161.127 504.684C158.891 504.371 155.575 506.67 154.402 507.812C154.076 508.12 153.692 508.36 153.272 508.52C152.852 508.68 152.406 508.755 151.957 508.742C151.508 508.729 151.066 508.628 150.657 508.444C150.247 508.26 149.878 507.997 149.57 507.671C149.261 507.344 149.021 506.96 148.861 506.541C148.701 506.121 148.626 505.674 148.639 505.225C148.652 504.777 148.753 504.335 148.937 503.925C149.121 503.516 149.384 503.146 149.71 502.838C150.32 502.244 155.966 497.161 161.988 497.974C163.481 498.192 164.904 498.751 166.146 499.609C167.389 500.466 168.417 501.598 169.151 502.916C174.953 512.378 170.981 530.38 166.523 533.946C164.974 535.042 163.1 535.582 161.206 535.479Z" fill="white"/>
</mask>
<g mask="url(#mask15_297_997)">
<path d="M165.788 505.419C165.378 504.447 164.736 503.591 163.917 502.926C163.099 502.261 162.131 501.806 161.096 501.603C157.186 500.977 153.511 504.903 153.104 505.34C152.73 505.791 152.499 506.342 152.441 506.925C152.382 507.507 152.499 508.094 152.776 508.609C153.391 508.486 153.959 508.193 154.418 507.765C155.591 506.67 158.906 504.371 161.143 504.637C161.69 504.637 162.519 504.965 163.411 506.404C167.352 512.816 164.302 526.298 162.316 528.519C161.237 528.988 157.202 528.159 154.058 526.83C153.671 526.667 153.258 526.577 152.838 526.564C152.867 526.992 153.002 527.407 153.231 527.77C153.461 528.134 153.777 528.434 154.152 528.644C156.129 529.7 158.311 530.319 160.549 530.458C161.825 530.519 163.076 530.082 164.036 529.238C166.977 526.533 169.573 512.691 165.788 505.419Z" fill="#92E3A9"/>
<path opacity="0.5" d="M165.788 505.419C165.378 504.447 164.736 503.591 163.917 502.926C163.099 502.261 162.131 501.806 161.096 501.603C157.186 500.977 153.511 504.903 153.104 505.34C152.73 505.791 152.499 506.342 152.441 506.925C152.382 507.507 152.499 508.094 152.776 508.609C153.391 508.486 153.959 508.193 154.418 507.765C155.591 506.67 158.906 504.371 161.143 504.637C161.69 504.637 162.519 504.965 163.411 506.404C167.352 512.816 164.302 526.298 162.316 528.519C161.237 528.988 157.202 528.159 154.058 526.83C153.671 526.667 153.258 526.577 152.838 526.564C152.867 526.992 153.002 527.407 153.231 527.77C153.461 528.134 153.777 528.434 154.152 528.644C156.129 529.7 158.311 530.319 160.549 530.458C161.825 530.519 163.076 530.082 164.036 529.238C166.977 526.533 169.573 512.691 165.788 505.419Z" fill="white"/>
</g>
<path d="M161.205 535.479C157.804 535.31 154.464 534.514 151.352 533.133C150.918 532.972 150.521 532.725 150.186 532.406C149.851 532.088 149.584 531.704 149.401 531.279C149.219 530.854 149.125 530.396 149.125 529.933C149.125 529.471 149.22 529.013 149.402 528.588C149.585 528.163 149.852 527.779 150.188 527.461C150.524 527.143 150.921 526.896 151.355 526.736C151.789 526.576 152.251 526.506 152.713 526.53C153.175 526.554 153.627 526.672 154.042 526.877C157.17 528.206 161.221 529.035 162.3 528.566C164.286 526.345 167.336 512.926 163.395 506.451C162.503 505.012 161.674 504.746 161.127 504.684C158.89 504.371 155.575 506.67 154.402 507.812C154.075 508.12 153.691 508.36 153.272 508.52C152.852 508.68 152.405 508.755 151.956 508.742C151.507 508.729 151.066 508.628 150.656 508.444C150.246 508.26 149.877 507.997 149.569 507.671C149.261 507.344 149.02 506.96 148.861 506.541C148.701 506.121 148.625 505.674 148.639 505.225C148.652 504.777 148.753 504.335 148.937 503.925C149.121 503.516 149.383 503.146 149.71 502.838C150.32 502.244 155.966 497.161 161.987 497.974C163.481 498.192 164.904 498.751 166.146 499.609C167.388 500.466 168.416 501.598 169.15 502.916C174.953 512.378 170.98 530.38 166.523 533.946C164.974 535.042 163.1 535.582 161.205 535.479Z" stroke="#263238" stroke-linecap="round" stroke-linejoin="round"/>
<path d="M155.231 495.128H117.617V545.05H155.231V495.128Z" fill="white"/>
<mask id="mask16_297_997" style="mask-type:luminance" maskUnits="userSpaceOnUse" x="117" y="495" width="39" height="51">
<path d="M155.232 495.128H117.618V545.05H155.232V495.128Z" fill="white"/>
</mask>
<g mask="url(#mask16_297_997)">
<path d="M133.024 495.128H117.618V545.05H133.024V495.128Z" fill="#92E3A9"/>
<path opacity="0.5" d="M133.024 495.128H117.618V545.05H133.024V495.128Z" fill="white"/>
</g>
<path d="M155.231 495.128H117.617V545.05H155.231V495.128Z" stroke="#263238" stroke-linecap="round" stroke-linejoin="round"/>
<path d="M361.928 544.362H201.243L196.004 456.028C195.859 455.171 195.902 454.294 196.129 453.455C196.356 452.617 196.763 451.838 197.32 451.172C197.878 450.506 198.573 449.969 199.359 449.597C200.144 449.226 201 449.029 201.869 449.021H361.239C362.113 449.02 362.977 449.21 363.77 449.578C364.563 449.945 365.266 450.481 365.83 451.148C366.395 451.815 366.807 452.598 367.038 453.44C367.268 454.283 367.313 455.166 367.167 456.028L361.928 544.362Z" fill="#263238" stroke="#263238" stroke-linecap="round" stroke-linejoin="round"/>
<path d="M209.157 451.133H360.082C360.934 451.124 361.778 451.302 362.555 451.653C363.332 452.005 364.022 452.522 364.578 453.169C365.134 453.816 365.541 454.576 365.772 455.397C366.003 456.217 366.052 457.079 365.915 457.92" stroke="white" stroke-linecap="round" stroke-linejoin="round"/>
<path d="M197.177 456.528C197.303 455.05 197.982 453.674 199.077 452.674C200.173 451.674 201.605 451.123 203.089 451.133" stroke="white" stroke-linecap="round" stroke-linejoin="round"/>
<path d="M362.6 535.76H200.571V544.362H362.6V535.76Z" fill="white" stroke="#263238" stroke-linecap="round" stroke-linejoin="round"/>
<path d="M281.006 503.917C287.346 503.917 292.486 500.836 292.486 497.036C292.486 493.235 287.346 490.154 281.006 490.154C274.666 490.154 269.527 493.235 269.527 497.036C269.527 500.836 274.666 503.917 281.006 503.917Z" fill="white" stroke="#263238" stroke-linecap="round" stroke-linejoin="round"/>
<path d="M606.989 543.345H3.50818V558H606.989V543.345Z" fill="#263238"/>
<path d="M450.512 0H160.189C150.402 0 142.469 7.93352 142.469 17.72V184.3C142.469 194.087 150.402 202.02 160.189 202.02H450.512C460.298 202.02 468.232 194.087 468.232 184.3V17.72C468.232 7.93352 460.298 0 450.512 0Z" fill="#92E3A9"/>
<path d="M313.011 116.095C339.347 111.863 357.265 87.083 353.032 60.7478C348.8 34.4125 324.02 16.4947 297.685 20.727C271.35 24.9594 253.432 49.7393 257.664 76.0745C261.896 102.41 286.676 120.328 313.011 116.095Z" fill="#263238"/>
<path d="M304.983 77.3392L288.889 97.9995C288.342 98.8596 287.59 99.57 286.7 100.067C285.81 100.564 284.81 100.831 283.791 100.846C282.393 100.865 281.043 100.331 280.037 99.3602C279.525 98.8909 279.121 98.317 278.851 97.6773C278.581 97.0377 278.452 96.3475 278.473 95.6535C278.524 94.0995 279.072 92.6028 280.037 91.3838L298.383 68.6904L281.179 45.9812C280.379 44.9155 279.941 43.6224 279.928 42.2902C279.924 41.4957 280.084 40.709 280.399 39.9795C280.714 39.2501 281.176 38.5937 281.758 38.0518C282.303 37.4821 282.959 37.0289 283.685 36.7198C284.41 36.4106 285.191 36.2519 285.98 36.2532C286.991 36.2696 287.981 36.5387 288.86 37.0359C289.74 37.5331 290.481 38.2426 291.016 39.0997L306.562 59.5723L322.202 39.4438C322.761 38.5047 323.543 37.718 324.479 37.1533C325.415 36.5886 326.475 36.2633 327.567 36.2063C328.244 36.2046 328.915 36.3426 329.536 36.6117C330.158 36.8808 330.717 37.2752 331.18 37.7703C331.672 38.2344 332.065 38.7941 332.334 39.4154C332.603 40.0366 332.742 40.7062 332.744 41.3831C332.727 42.5945 332.309 43.7661 331.555 44.7144L313.147 68.2681L330.929 91.7279C331.77 92.7765 332.238 94.0751 332.259 95.4189C332.264 96.196 332.1 96.9649 331.779 97.6724C331.457 98.3799 330.986 99.0091 330.398 99.5166C329.25 100.62 327.72 101.237 326.128 101.237C325.113 101.224 324.117 100.957 323.231 100.46C322.346 99.9626 321.6 99.2511 321.061 98.3905L304.983 77.3392Z" fill="white"/>
<path d="M397.367 167.034H213.27C209.537 167.034 205.957 165.551 203.317 162.911C200.677 160.272 199.194 156.691 199.194 152.958C199.194 149.225 200.677 145.645 203.317 143.005C205.957 140.365 209.537 138.882 213.27 138.882H397.367C401.101 138.882 404.681 140.365 407.321 143.005C409.96 145.645 411.443 149.225 411.443 152.958C411.443 156.691 409.96 160.272 407.321 162.911C404.681 165.551 401.101 167.034 397.367 167.034Z" fill="white"/>
<path d="M238.497 157.494C238.375 157.494 238.253 157.469 238.14 157.42C238.027 157.372 237.925 157.301 237.841 157.212C237.748 157.12 237.675 157.01 237.627 156.889C237.578 156.768 237.555 156.639 237.559 156.508C237.559 156.288 237.618 156.072 237.731 155.883L239.139 153.693H236.261C236.128 153.7 235.995 153.678 235.871 153.63C235.747 153.581 235.635 153.507 235.542 153.412C235.381 153.224 235.292 152.986 235.292 152.739C235.292 152.492 235.381 152.254 235.542 152.067C235.635 151.971 235.747 151.897 235.871 151.848C235.995 151.8 236.128 151.778 236.261 151.785L239.092 151.863L237.841 149.83C237.715 149.622 237.645 149.385 237.637 149.142C237.634 149.012 237.657 148.882 237.705 148.761C237.754 148.64 237.826 148.53 237.919 148.438C238.006 148.349 238.111 148.278 238.227 148.229C238.342 148.181 238.466 148.156 238.591 148.157C238.766 148.154 238.938 148.203 239.086 148.298C239.233 148.392 239.35 148.528 239.42 148.688L240.797 151.144L242.11 148.798C242.193 148.615 242.324 148.459 242.49 148.346C242.655 148.233 242.849 148.167 243.049 148.157C243.172 148.157 243.293 148.182 243.406 148.23C243.519 148.278 243.621 148.349 243.706 148.438C243.797 148.524 243.87 148.628 243.918 148.744C243.967 148.86 243.99 148.985 243.987 149.111C243.985 149.333 243.92 149.55 243.799 149.736L242.423 151.941L245.285 151.863C245.418 151.855 245.552 151.876 245.676 151.925C245.8 151.974 245.912 152.049 246.005 152.145C246.165 152.332 246.254 152.571 246.254 152.817C246.254 153.064 246.165 153.303 246.005 153.49C245.912 153.586 245.8 153.661 245.676 153.709C245.552 153.758 245.418 153.779 245.285 153.771H242.392L243.674 155.773C243.819 156.015 243.9 156.289 243.909 156.571C243.913 156.698 243.892 156.824 243.846 156.942C243.801 157.06 243.731 157.168 243.643 157.259C243.561 157.347 243.461 157.417 243.351 157.465C243.241 157.514 243.122 157.539 243.002 157.541C242.808 157.536 242.62 157.476 242.459 157.368C242.299 157.26 242.172 157.108 242.095 156.931L240.797 154.632L239.498 156.931C239.404 157.112 239.26 157.261 239.082 157.361C238.904 157.461 238.701 157.507 238.497 157.494Z" fill="black"/>
<path d="M252.855 157.494C252.733 157.494 252.611 157.469 252.498 157.42C252.385 157.372 252.283 157.301 252.198 157.212C252.106 157.12 252.033 157.01 251.985 156.889C251.936 156.768 251.913 156.639 251.917 156.508C251.917 156.288 251.976 156.072 252.089 155.883L253.497 153.693H250.619C250.486 153.7 250.353 153.678 250.229 153.63C250.105 153.581 249.992 153.507 249.899 153.412C249.739 153.224 249.65 152.986 249.65 152.739C249.65 152.492 249.739 152.254 249.899 152.067C249.992 151.971 250.105 151.897 250.229 151.848C250.353 151.8 250.486 151.778 250.619 151.785L253.45 151.863L252.12 149.752C251.995 149.544 251.925 149.307 251.917 149.064C251.913 148.933 251.936 148.804 251.985 148.683C252.033 148.562 252.106 148.452 252.198 148.36C252.286 148.271 252.391 148.2 252.506 148.151C252.622 148.103 252.746 148.078 252.871 148.078C253.046 148.076 253.218 148.125 253.366 148.22C253.513 148.314 253.629 148.45 253.7 148.61L255.076 151.066L256.39 148.72C256.473 148.537 256.604 148.381 256.769 148.268C256.935 148.155 257.128 148.089 257.328 148.078C257.451 148.078 257.573 148.103 257.686 148.152C257.799 148.2 257.901 148.271 257.985 148.36C258.077 148.446 258.149 148.55 258.198 148.666C258.246 148.782 258.27 148.907 258.267 149.033C258.265 149.255 258.2 149.472 258.079 149.658L256.703 151.863L259.565 151.785C259.698 151.777 259.831 151.798 259.955 151.847C260.08 151.896 260.192 151.971 260.284 152.067C260.445 152.254 260.533 152.492 260.533 152.739C260.533 152.986 260.445 153.224 260.284 153.412C260.192 153.508 260.08 153.583 259.955 153.631C259.831 153.68 259.698 153.701 259.565 153.693H256.671L257.954 155.695C258.099 155.937 258.179 156.211 258.189 156.493C258.193 156.619 258.172 156.746 258.126 156.864C258.08 156.982 258.011 157.09 257.923 157.181C257.84 157.269 257.741 157.339 257.631 157.387C257.521 157.436 257.402 157.461 257.281 157.462C257.087 157.46 256.898 157.4 256.737 157.292C256.576 157.184 256.45 157.031 256.374 156.852L255.076 154.553L253.778 156.852C253.701 157.036 253.573 157.194 253.41 157.307C253.247 157.421 253.054 157.485 252.855 157.494Z" fill="black"/>
<path d="M267.213 157.494C267.09 157.494 266.968 157.469 266.855 157.42C266.742 157.372 266.64 157.301 266.556 157.212C266.463 157.12 266.39 157.01 266.342 156.889C266.294 156.768 266.27 156.639 266.274 156.508C266.274 156.288 266.333 156.072 266.446 155.883L267.854 153.693H264.976C264.843 153.7 264.71 153.678 264.586 153.63C264.462 153.581 264.35 153.507 264.257 153.412C264.096 153.224 264.007 152.986 264.007 152.739C264.007 152.492 264.096 152.254 264.257 152.067C264.35 151.971 264.462 151.897 264.586 151.848C264.71 151.8 264.843 151.778 264.976 151.785L267.807 151.863L266.477 149.752C266.352 149.544 266.282 149.307 266.274 149.064C266.27 148.933 266.294 148.804 266.342 148.683C266.39 148.562 266.463 148.452 266.556 148.36C266.643 148.271 266.748 148.2 266.863 148.151C266.979 148.103 267.103 148.078 267.228 148.078C267.403 148.076 267.575 148.125 267.723 148.22C267.87 148.314 267.986 148.45 268.057 148.61L269.433 151.066L270.747 148.72C270.83 148.537 270.961 148.381 271.127 148.268C271.292 148.155 271.485 148.089 271.686 148.078C271.808 148.078 271.93 148.103 272.043 148.152C272.156 148.2 272.258 148.271 272.342 148.36C272.434 148.446 272.507 148.55 272.555 148.666C272.604 148.782 272.627 148.907 272.624 149.033C272.622 149.255 272.557 149.472 272.436 149.658L271.06 151.863L273.922 151.785C274.055 151.777 274.188 151.798 274.313 151.847C274.437 151.896 274.549 151.971 274.641 152.067C274.802 152.254 274.891 152.492 274.891 152.739C274.891 152.986 274.802 153.224 274.641 153.412C274.549 153.508 274.437 153.583 274.313 153.631C274.188 153.68 274.055 153.701 273.922 153.693H271.029L272.311 155.695C272.456 155.937 272.537 156.211 272.546 156.493C272.55 156.619 272.529 156.746 272.483 156.864C272.438 156.982 272.368 157.09 272.28 157.181C272.198 157.269 272.098 157.339 271.988 157.387C271.878 157.436 271.759 157.461 271.639 157.462C271.445 157.46 271.255 157.4 271.094 157.292C270.933 157.184 270.807 157.031 270.732 156.852L269.433 154.553L268.135 156.852C268.058 157.036 267.931 157.194 267.767 157.307C267.604 157.421 267.411 157.485 267.213 157.494Z" fill="black"/>
<path d="M281.633 157.494C281.51 157.494 281.388 157.469 281.275 157.42C281.162 157.372 281.06 157.301 280.976 157.212C280.883 157.12 280.81 157.01 280.762 156.889C280.714 156.768 280.691 156.639 280.694 156.508C280.694 156.288 280.753 156.072 280.866 155.883L282.274 153.693H279.396C279.263 153.7 279.13 153.678 279.006 153.63C278.882 153.581 278.77 153.507 278.677 153.412C278.516 153.224 278.427 152.986 278.427 152.739C278.427 152.492 278.516 152.254 278.677 152.067C278.77 151.971 278.882 151.897 279.006 151.848C279.13 151.8 279.263 151.778 279.396 151.785L282.227 151.863L280.897 149.752C280.772 149.544 280.702 149.307 280.694 149.064C280.691 148.933 280.714 148.804 280.762 148.683C280.81 148.562 280.883 148.452 280.976 148.36C281.063 148.271 281.168 148.2 281.284 148.151C281.399 148.103 281.523 148.078 281.648 148.078C281.823 148.076 281.995 148.125 282.143 148.22C282.29 148.314 282.406 148.45 282.477 148.61L283.853 151.066L285.167 148.72C285.25 148.537 285.381 148.381 285.547 148.268C285.712 148.155 285.905 148.089 286.106 148.078C286.228 148.078 286.35 148.103 286.463 148.152C286.576 148.2 286.678 148.271 286.762 148.36C286.854 148.446 286.927 148.55 286.975 148.666C287.024 148.782 287.047 148.907 287.044 149.033C287.042 149.255 286.977 149.472 286.856 149.658L285.48 151.863L288.342 151.785C288.475 151.777 288.608 151.798 288.733 151.847C288.857 151.896 288.969 151.971 289.062 152.067C289.222 152.254 289.311 152.492 289.311 152.739C289.311 152.986 289.222 153.224 289.062 153.412C288.969 153.508 288.857 153.583 288.733 153.631C288.608 153.68 288.475 153.701 288.342 153.693H285.449L286.731 155.695C286.876 155.937 286.957 156.211 286.966 156.493C286.97 156.619 286.949 156.746 286.903 156.864C286.858 156.982 286.788 157.09 286.7 157.181C286.618 157.269 286.518 157.339 286.408 157.387C286.298 157.436 286.179 157.461 286.059 157.462C285.865 157.458 285.677 157.398 285.516 157.29C285.355 157.182 285.229 157.03 285.152 156.852L283.853 154.553L282.555 156.852C282.478 157.036 282.351 157.194 282.187 157.307C282.024 157.421 281.831 157.485 281.633 157.494Z" fill="black"/>
<path d="M295.928 157.494C295.805 157.494 295.683 157.469 295.57 157.42C295.457 157.372 295.355 157.301 295.271 157.212C295.178 157.12 295.106 157.01 295.057 156.889C295.009 156.768 294.986 156.639 294.989 156.508C294.996 156.289 295.055 156.075 295.161 155.883L296.569 153.693H293.691C293.558 153.7 293.425 153.678 293.301 153.63C293.177 153.581 293.065 153.507 292.972 153.412C292.811 153.224 292.723 152.986 292.723 152.739C292.723 152.492 292.811 152.254 292.972 152.067C293.065 151.971 293.177 151.897 293.301 151.848C293.425 151.8 293.558 151.778 293.691 151.785L296.522 151.863L295.193 149.752C295.067 149.544 294.997 149.307 294.989 149.064C294.986 148.933 295.009 148.804 295.057 148.683C295.106 148.562 295.178 148.452 295.271 148.36C295.358 148.271 295.463 148.2 295.579 148.151C295.694 148.103 295.818 148.078 295.943 148.078C296.118 148.076 296.29 148.125 296.438 148.22C296.585 148.314 296.702 148.45 296.772 148.61L298.148 151.066L299.462 148.72C299.545 148.537 299.676 148.381 299.842 148.268C300.007 148.155 300.201 148.089 300.401 148.078C300.524 148.077 300.646 148.101 300.759 148.149C300.872 148.198 300.974 148.27 301.057 148.36C301.149 148.446 301.222 148.55 301.27 148.666C301.319 148.782 301.342 148.907 301.339 149.033C301.337 149.255 301.272 149.472 301.151 149.658L299.775 151.863L302.637 151.785C302.77 151.777 302.904 151.798 303.028 151.847C303.152 151.896 303.264 151.971 303.357 152.067C303.517 152.254 303.606 152.492 303.606 152.739C303.606 152.986 303.517 153.224 303.357 153.412C303.264 153.508 303.152 153.583 303.028 153.631C302.904 153.68 302.77 153.701 302.637 153.693H299.744L301.026 155.695C301.171 155.937 301.252 156.211 301.261 156.493C301.265 156.619 301.244 156.746 301.198 156.864C301.153 156.982 301.083 157.09 300.995 157.181C300.913 157.269 300.813 157.339 300.703 157.387C300.593 157.436 300.474 157.461 300.354 157.462C300.16 157.458 299.972 157.398 299.811 157.29C299.65 157.182 299.524 157.03 299.447 156.852L298.148 154.553L296.85 156.852C296.773 157.036 296.646 157.194 296.482 157.307C296.319 157.421 296.126 157.485 295.928 157.494Z" fill="black"/>
<path d="M310.285 157.494C310.162 157.494 310.04 157.469 309.927 157.42C309.815 157.372 309.713 157.301 309.628 157.212C309.535 157.12 309.463 157.01 309.414 156.889C309.366 156.768 309.343 156.639 309.346 156.508C309.354 156.289 309.413 156.075 309.518 155.883L310.926 153.693H308.064C307.928 153.701 307.793 153.68 307.666 153.632C307.539 153.583 307.424 153.508 307.329 153.412C307.168 153.224 307.08 152.986 307.08 152.739C307.08 152.492 307.168 152.254 307.329 152.067C307.424 151.97 307.539 151.895 307.666 151.847C307.793 151.798 307.928 151.777 308.064 151.785L310.879 151.863L309.55 149.752C309.424 149.544 309.354 149.307 309.346 149.064C309.343 148.933 309.366 148.804 309.414 148.683C309.463 148.562 309.535 148.452 309.628 148.36C309.716 148.271 309.82 148.2 309.936 148.151C310.051 148.103 310.175 148.078 310.3 148.078C310.476 148.076 310.648 148.125 310.795 148.22C310.942 148.314 311.059 148.45 311.129 148.61L312.506 151.066L313.819 148.72C313.902 148.537 314.033 148.381 314.199 148.268C314.364 148.155 314.558 148.089 314.758 148.078C314.881 148.077 315.003 148.101 315.116 148.149C315.229 148.198 315.331 148.27 315.415 148.36C315.506 148.446 315.579 148.55 315.627 148.666C315.676 148.782 315.699 148.907 315.696 149.033C315.694 149.255 315.629 149.472 315.509 149.658L314.132 151.863L316.994 151.785C317.127 151.777 317.261 151.798 317.385 151.847C317.509 151.896 317.621 151.971 317.714 152.067C317.875 152.254 317.963 152.492 317.963 152.739C317.963 152.986 317.875 153.224 317.714 153.412C317.621 153.508 317.509 153.583 317.385 153.631C317.261 153.68 317.127 153.701 316.994 153.693H314.101L315.383 155.695C315.528 155.937 315.609 156.211 315.618 156.493C315.622 156.619 315.601 156.746 315.556 156.864C315.51 156.982 315.441 157.09 315.352 157.181C315.27 157.269 315.17 157.339 315.06 157.387C314.95 157.436 314.831 157.461 314.711 157.462C314.517 157.458 314.329 157.398 314.168 157.29C314.008 157.182 313.881 157.03 313.804 156.852L312.506 154.553L311.208 156.852C311.13 157.036 311.003 157.194 310.839 157.307C310.676 157.421 310.484 157.485 310.285 157.494Z" fill="black"/>
<path d="M324.643 157.494C324.52 157.494 324.398 157.469 324.285 157.42C324.172 157.372 324.071 157.301 323.986 157.212C323.893 157.12 323.821 157.01 323.772 156.889C323.724 156.768 323.701 156.639 323.704 156.508C323.704 156.288 323.764 156.072 323.876 155.883L325.284 153.693H322.406C322.273 153.7 322.14 153.678 322.016 153.63C321.892 153.581 321.78 153.507 321.687 153.412C321.526 153.224 321.438 152.986 321.438 152.739C321.438 152.492 321.526 152.254 321.687 152.067C321.78 151.971 321.892 151.897 322.016 151.848C322.14 151.8 322.273 151.778 322.406 151.785L325.237 151.863L323.861 149.83C323.735 149.622 323.665 149.385 323.657 149.142C323.654 149.012 323.677 148.882 323.725 148.761C323.774 148.64 323.846 148.53 323.939 148.438C324.027 148.349 324.131 148.278 324.247 148.229C324.362 148.181 324.486 148.156 324.611 148.157C324.787 148.154 324.959 148.203 325.106 148.298C325.253 148.392 325.37 148.528 325.44 148.688L326.817 151.144L328.13 148.798C328.213 148.615 328.344 148.459 328.51 148.346C328.675 148.233 328.869 148.167 329.069 148.157C329.192 148.155 329.314 148.179 329.427 148.227C329.54 148.276 329.642 148.348 329.726 148.438C329.817 148.524 329.89 148.628 329.938 148.744C329.987 148.86 330.01 148.985 330.007 149.111C330.005 149.333 329.94 149.55 329.819 149.736L328.443 151.941L331.305 151.863C331.438 151.855 331.572 151.877 331.696 151.925C331.82 151.974 331.932 152.049 332.025 152.145C332.185 152.332 332.274 152.571 332.274 152.817C332.274 153.064 332.185 153.303 332.025 153.49C331.932 153.586 331.82 153.661 331.696 153.709C331.572 153.758 331.438 153.779 331.305 153.771H328.412L329.694 155.773C329.839 156.015 329.92 156.289 329.929 156.571C329.933 156.698 329.912 156.824 329.866 156.942C329.821 157.06 329.752 157.168 329.663 157.259C329.581 157.347 329.481 157.417 329.371 157.465C329.261 157.514 329.142 157.539 329.022 157.541C328.828 157.536 328.64 157.476 328.479 157.368C328.319 157.26 328.192 157.108 328.115 156.931L326.817 154.632L325.519 156.931C325.434 157.093 325.309 157.23 325.155 157.329C325.002 157.427 324.825 157.484 324.643 157.494Z" fill="black"/>
<path d="M339 157.494C338.877 157.494 338.755 157.469 338.642 157.42C338.529 157.372 338.427 157.301 338.343 157.212C338.25 157.12 338.177 157.011 338.129 156.89C338.081 156.768 338.058 156.639 338.061 156.508C338.068 156.289 338.127 156.075 338.233 155.883L339.641 153.693H336.779C336.645 153.703 336.511 153.683 336.387 153.635C336.262 153.586 336.15 153.51 336.059 153.412C335.889 153.229 335.794 152.989 335.794 152.739C335.794 152.49 335.889 152.249 336.059 152.067C336.15 151.969 336.262 151.893 336.387 151.844C336.511 151.795 336.645 151.775 336.779 151.785L339.594 151.863L338.264 149.752C338.139 149.544 338.069 149.307 338.061 149.064C338.057 148.936 338.079 148.809 338.125 148.689C338.171 148.57 338.24 148.461 338.329 148.369C338.418 148.277 338.525 148.204 338.643 148.154C338.761 148.104 338.887 148.078 339.015 148.079C339.19 148.076 339.362 148.125 339.51 148.22C339.657 148.314 339.773 148.45 339.844 148.61L341.22 151.066L342.534 148.72C342.617 148.537 342.748 148.381 342.914 148.268C343.079 148.155 343.272 148.089 343.473 148.079C343.596 148.075 343.719 148.098 343.832 148.146C343.946 148.195 344.047 148.268 344.129 148.36C344.221 148.446 344.294 148.55 344.342 148.666C344.391 148.782 344.414 148.907 344.411 149.033C344.409 149.255 344.344 149.472 344.223 149.658L342.847 151.863L345.709 151.785C345.842 151.777 345.975 151.798 346.1 151.847C346.224 151.896 346.336 151.971 346.429 152.067C346.589 152.254 346.678 152.493 346.678 152.739C346.678 152.986 346.589 153.225 346.429 153.412C346.336 153.508 346.224 153.583 346.1 153.631C345.975 153.68 345.842 153.701 345.709 153.693H342.816L344.098 155.695C344.243 155.937 344.324 156.211 344.333 156.493C344.337 156.616 344.317 156.739 344.273 156.854C344.23 156.97 344.164 157.076 344.08 157.166C343.996 157.256 343.895 157.328 343.782 157.379C343.67 157.43 343.549 157.458 343.426 157.462C343.232 157.458 343.044 157.398 342.883 157.29C342.722 157.182 342.596 157.03 342.519 156.853L341.22 154.553L339.922 156.853C339.845 157.036 339.718 157.194 339.554 157.307C339.391 157.421 339.198 157.486 339 157.494Z" fill="black"/>
<path d="M353.357 157.494C353.234 157.494 353.112 157.469 353 157.42C352.887 157.372 352.785 157.301 352.7 157.212C352.607 157.12 352.535 157.011 352.486 156.89C352.438 156.768 352.415 156.639 352.419 156.508C352.426 156.289 352.485 156.075 352.591 155.883L353.998 153.693H351.12C350.99 153.701 350.859 153.68 350.737 153.631C350.615 153.582 350.506 153.508 350.417 153.412C350.246 153.229 350.151 152.989 350.151 152.739C350.151 152.49 350.246 152.249 350.417 152.067C350.506 151.971 350.615 151.896 350.737 151.847C350.859 151.799 350.99 151.778 351.12 151.785L353.951 151.863L352.622 149.752C352.496 149.544 352.426 149.307 352.419 149.064C352.414 148.936 352.436 148.809 352.482 148.689C352.528 148.57 352.598 148.461 352.687 148.369C352.776 148.277 352.882 148.204 353 148.154C353.118 148.104 353.245 148.078 353.373 148.079C353.548 148.076 353.72 148.125 353.867 148.22C354.014 148.314 354.131 148.45 354.201 148.61L355.578 151.066L356.891 148.72C356.974 148.537 357.106 148.381 357.271 148.268C357.436 148.155 357.63 148.089 357.83 148.079C357.953 148.075 358.076 148.098 358.19 148.146C358.303 148.195 358.405 148.268 358.487 148.36C358.578 148.446 358.651 148.55 358.699 148.666C358.748 148.782 358.771 148.907 358.768 149.033C358.766 149.255 358.701 149.472 358.581 149.658L357.204 151.863L360.066 151.785C360.2 151.777 360.333 151.798 360.457 151.847C360.581 151.896 360.693 151.971 360.786 152.067C360.947 152.254 361.035 152.493 361.035 152.739C361.035 152.986 360.947 153.225 360.786 153.412C360.693 153.508 360.581 153.583 360.457 153.631C360.333 153.68 360.2 153.701 360.066 153.693H357.173L358.455 155.695C358.6 155.937 358.681 156.211 358.69 156.493C358.694 156.616 358.674 156.739 358.631 156.854C358.587 156.97 358.522 157.076 358.438 157.166C358.353 157.256 358.252 157.328 358.14 157.379C358.027 157.43 357.906 157.458 357.783 157.462C357.589 157.458 357.401 157.398 357.24 157.29C357.08 157.182 356.953 157.03 356.876 156.853L355.578 154.553L354.28 156.853C354.203 157.036 354.075 157.194 353.911 157.307C353.748 157.421 353.556 157.486 353.357 157.494Z" fill="black"/>
<path d="M367.652 157.494C367.529 157.494 367.407 157.469 367.295 157.42C367.182 157.372 367.08 157.301 366.995 157.212C366.902 157.12 366.83 157.011 366.781 156.89C366.733 156.768 366.71 156.639 366.713 156.508C366.721 156.289 366.78 156.075 366.886 155.883L368.293 153.693H365.415C365.285 153.701 365.154 153.68 365.032 153.631C364.91 153.582 364.801 153.508 364.712 153.412C364.541 153.229 364.446 152.989 364.446 152.739C364.446 152.49 364.541 152.249 364.712 152.067C364.801 151.971 364.91 151.896 365.032 151.847C365.154 151.799 365.285 151.778 365.415 151.785L368.246 151.863L366.917 149.752C366.791 149.544 366.721 149.307 366.713 149.064C366.71 148.934 366.733 148.804 366.781 148.683C366.83 148.562 366.902 148.452 366.995 148.36C367.083 148.271 367.187 148.2 367.303 148.151C367.418 148.103 367.542 148.078 367.668 148.079C367.843 148.076 368.015 148.125 368.162 148.22C368.309 148.314 368.426 148.45 368.496 148.61L369.873 151.066L371.187 148.72C371.269 148.537 371.401 148.381 371.566 148.268C371.731 148.155 371.925 148.089 372.125 148.079C372.248 148.075 372.371 148.098 372.485 148.146C372.598 148.195 372.7 148.268 372.782 148.36C372.873 148.446 372.946 148.55 372.994 148.666C373.043 148.782 373.066 148.907 373.063 149.033C373.061 149.255 372.996 149.472 372.876 149.658L371.499 151.863L374.361 151.785C374.495 151.777 374.628 151.798 374.752 151.847C374.876 151.896 374.988 151.971 375.081 152.067C375.242 152.254 375.33 152.493 375.33 152.739C375.33 152.986 375.242 153.225 375.081 153.412C374.988 153.508 374.876 153.583 374.752 153.631C374.628 153.68 374.495 153.701 374.361 153.693H371.468L372.751 155.695C372.895 155.937 372.976 156.211 372.985 156.493C372.99 156.62 372.968 156.746 372.923 156.864C372.877 156.982 372.808 157.09 372.719 157.181C372.637 157.269 372.538 157.339 372.427 157.387C372.317 157.436 372.198 157.461 372.078 157.462C371.884 157.458 371.696 157.398 371.535 157.29C371.375 157.182 371.248 157.03 371.171 156.853L369.873 154.553L368.575 156.853C368.498 157.036 368.37 157.194 368.207 157.307C368.043 157.421 367.851 157.486 367.652 157.494Z" fill="black"/>
<path d="M416.855 192.089H435.983" stroke="white" stroke-width="3" stroke-linecap="round" stroke-linejoin="round"/>
<path d="M151.555 51.252V178.295C151.555 181.974 153.017 185.503 155.619 188.104C158.22 190.706 161.749 192.167 165.428 192.167H398.697" stroke="white" stroke-width="3" stroke-linecap="round" stroke-linejoin="round"/>
<path d="M151.555 17.5637V36.6131" stroke="white" stroke-width="3" stroke-linecap="round" stroke-linejoin="round"/>
</svg>
